<?xml version="1.0" encoding="utf-8" standalone="no"?>
<!DOCTYPE svg PUBLIC "-//W3C//DTD SVG 1.1//EN"
  "http://www.w3.org/Graphics/SVG/1.1/DTD/svg11.dtd">
<svg xmlns:xlink="http://www.w3.org/1999/xlink" width="639.796875pt" height="263.445719pt" viewBox="0 0 639.796875 263.445719" xmlns="http://www.w3.org/2000/svg" version="1.1">
 <metadata>
  <rdf:RDF xmlns:dc="http://purl.org/dc/elements/1.1/" xmlns:cc="http://creativecommons.org/ns#" xmlns:rdf="http://www.w3.org/1999/02/22-rdf-syntax-ns#">
   <cc:Work>
    <dc:type rdf:resource="http://purl.org/dc/dcmitype/StillImage"/>
    <dc:date>2026-06-16T23:42:50.578944</dc:date>
    <dc:format>image/svg+xml</dc:format>
    <dc:creator>
     <cc:Agent>
      <dc:title>Matplotlib v3.9.2, https://matplotlib.org/</dc:title>
     </cc:Agent>
    </dc:creator>
   </cc:Work>
  </rdf:RDF>
 </metadata>
 <defs>
  <style type="text/css">*{stroke-linejoin: round; stroke-linecap: butt}</style>
 </defs>
 <g id="figure_1">
  <g id="patch_1">
   <path d="M 0 263.445719 
L 639.796875 263.445719 
L 639.796875 0 
L 0 0 
z
" style="fill: #ffffff"/>
  </g>
  <g id="axes_1">
   <g id="patch_2">
    <path d="M 40.439375 228.542594 
L 310.678125 228.542594 
L 310.678125 20.038594 
L 40.439375 20.038594 
z
" style="fill: #ffffff"/>
   </g>
   <g id="matplotlib.axis_1">
    <g id="xtick_1">
     <g id="line2d_1">
      <defs>
       <path id="m397a0f81a3" d="M 0 0 
L 0 3.5 
" style="stroke: #000000; stroke-width: 0.8"/>
      </defs>
      <g>
       <use xlink:href="#m397a0f81a3" x="50.216102" y="228.542594" style="stroke: #000000; stroke-width: 0.8"/>
      </g>
     </g>
     <g id="text_1">
      <!-- 0.0 -->
      <g transform="translate(43.854852 241.621344) scale(0.08 -0.08)">
       <defs>
        <path id="DejaVuSans-30" d="M 2034 4250 
Q 1547 4250 1301 3770 
Q 1056 3291 1056 2328 
Q 1056 1369 1301 889 
Q 1547 409 2034 409 
Q 2525 409 2770 889 
Q 3016 1369 3016 2328 
Q 3016 3291 2770 3770 
Q 2525 4250 2034 4250 
z
M 2034 4750 
Q 2819 4750 3233 4129 
Q 3647 3509 3647 2328 
Q 3647 1150 3233 529 
Q 2819 -91 2034 -91 
Q 1250 -91 836 529 
Q 422 1150 422 2328 
Q 422 3509 836 4129 
Q 1250 4750 2034 4750 
z
" transform="scale(0.015625)"/>
        <path id="DejaVuSans-2e" d="M 684 794 
L 1344 794 
L 1344 0 
L 684 0 
L 684 794 
z
" transform="scale(0.015625)"/>
       </defs>
       <use xlink:href="#DejaVuSans-30"/>
       <use xlink:href="#DejaVuSans-2e" x="63.623047"/>
       <use xlink:href="#DejaVuSans-30" x="95.410156"/>
      </g>
     </g>
    </g>
    <g id="xtick_2">
     <g id="line2d_2">
      <g>
       <use xlink:href="#m397a0f81a3" x="100.353161" y="228.542594" style="stroke: #000000; stroke-width: 0.8"/>
      </g>
     </g>
     <g id="text_2">
      <!-- 0.2 -->
      <g transform="translate(93.991911 241.621344) scale(0.08 -0.08)">
       <defs>
        <path id="DejaVuSans-32" d="M 1228 531 
L 3431 531 
L 3431 0 
L 469 0 
L 469 531 
Q 828 903 1448 1529 
Q 2069 2156 2228 2338 
Q 2531 2678 2651 2914 
Q 2772 3150 2772 3378 
Q 2772 3750 2511 3984 
Q 2250 4219 1831 4219 
Q 1534 4219 1204 4116 
Q 875 4013 500 3803 
L 500 4441 
Q 881 4594 1212 4672 
Q 1544 4750 1819 4750 
Q 2544 4750 2975 4387 
Q 3406 4025 3406 3419 
Q 3406 3131 3298 2873 
Q 3191 2616 2906 2266 
Q 2828 2175 2409 1742 
Q 1991 1309 1228 531 
z
" transform="scale(0.015625)"/>
       </defs>
       <use xlink:href="#DejaVuSans-30"/>
       <use xlink:href="#DejaVuSans-2e" x="63.623047"/>
       <use xlink:href="#DejaVuSans-32" x="95.410156"/>
      </g>
     </g>
    </g>
    <g id="xtick_3">
     <g id="line2d_3">
      <g>
       <use xlink:href="#m397a0f81a3" x="150.49022" y="228.542594" style="stroke: #000000; stroke-width: 0.8"/>
      </g>
     </g>
     <g id="text_3">
      <!-- 0.4 -->
      <g transform="translate(144.12897 241.621344) scale(0.08 -0.08)">
       <defs>
        <path id="DejaVuSans-34" d="M 2419 4116 
L 825 1625 
L 2419 1625 
L 2419 4116 
z
M 2253 4666 
L 3047 4666 
L 3047 1625 
L 3713 1625 
L 3713 1100 
L 3047 1100 
L 3047 0 
L 2419 0 
L 2419 1100 
L 313 1100 
L 313 1709 
L 2253 4666 
z
" transform="scale(0.015625)"/>
       </defs>
       <use xlink:href="#DejaVuSans-30"/>
       <use xlink:href="#DejaVuSans-2e" x="63.623047"/>
       <use xlink:href="#DejaVuSans-34" x="95.410156"/>
      </g>
     </g>
    </g>
    <g id="xtick_4">
     <g id="line2d_4">
      <g>
       <use xlink:href="#m397a0f81a3" x="200.62728" y="228.542594" style="stroke: #000000; stroke-width: 0.8"/>
      </g>
     </g>
     <g id="text_4">
      <!-- 0.6 -->
      <g transform="translate(194.26603 241.621344) scale(0.08 -0.08)">
       <defs>
        <path id="DejaVuSans-36" d="M 2113 2584 
Q 1688 2584 1439 2293 
Q 1191 2003 1191 1497 
Q 1191 994 1439 701 
Q 1688 409 2113 409 
Q 2538 409 2786 701 
Q 3034 994 3034 1497 
Q 3034 2003 2786 2293 
Q 2538 2584 2113 2584 
z
M 3366 4563 
L 3366 3988 
Q 3128 4100 2886 4159 
Q 2644 4219 2406 4219 
Q 1781 4219 1451 3797 
Q 1122 3375 1075 2522 
Q 1259 2794 1537 2939 
Q 1816 3084 2150 3084 
Q 2853 3084 3261 2657 
Q 3669 2231 3669 1497 
Q 3669 778 3244 343 
Q 2819 -91 2113 -91 
Q 1303 -91 875 529 
Q 447 1150 447 2328 
Q 447 3434 972 4092 
Q 1497 4750 2381 4750 
Q 2619 4750 2861 4703 
Q 3103 4656 3366 4563 
z
" transform="scale(0.015625)"/>
       </defs>
       <use xlink:href="#DejaVuSans-30"/>
       <use xlink:href="#DejaVuSans-2e" x="63.623047"/>
       <use xlink:href="#DejaVuSans-36" x="95.410156"/>
      </g>
     </g>
    </g>
    <g id="xtick_5">
     <g id="line2d_5">
      <g>
       <use xlink:href="#m397a0f81a3" x="250.764339" y="228.542594" style="stroke: #000000; stroke-width: 0.8"/>
      </g>
     </g>
     <g id="text_5">
      <!-- 0.8 -->
      <g transform="translate(244.403089 241.621344) scale(0.08 -0.08)">
       <defs>
        <path id="DejaVuSans-38" d="M 2034 2216 
Q 1584 2216 1326 1975 
Q 1069 1734 1069 1313 
Q 1069 891 1326 650 
Q 1584 409 2034 409 
Q 2484 409 2743 651 
Q 3003 894 3003 1313 
Q 3003 1734 2745 1975 
Q 2488 2216 2034 2216 
z
M 1403 2484 
Q 997 2584 770 2862 
Q 544 3141 544 3541 
Q 544 4100 942 4425 
Q 1341 4750 2034 4750 
Q 2731 4750 3128 4425 
Q 3525 4100 3525 3541 
Q 3525 3141 3298 2862 
Q 3072 2584 2669 2484 
Q 3125 2378 3379 2068 
Q 3634 1759 3634 1313 
Q 3634 634 3220 271 
Q 2806 -91 2034 -91 
Q 1263 -91 848 271 
Q 434 634 434 1313 
Q 434 1759 690 2068 
Q 947 2378 1403 2484 
z
M 1172 3481 
Q 1172 3119 1398 2916 
Q 1625 2713 2034 2713 
Q 2441 2713 2670 2916 
Q 2900 3119 2900 3481 
Q 2900 3844 2670 4047 
Q 2441 4250 2034 4250 
Q 1625 4250 1398 4047 
Q 1172 3844 1172 3481 
z
" transform="scale(0.015625)"/>
       </defs>
       <use xlink:href="#DejaVuSans-30"/>
       <use xlink:href="#DejaVuSans-2e" x="63.623047"/>
       <use xlink:href="#DejaVuSans-38" x="95.410156"/>
      </g>
     </g>
    </g>
    <g id="xtick_6">
     <g id="line2d_6">
      <g>
       <use xlink:href="#m397a0f81a3" x="300.901398" y="228.542594" style="stroke: #000000; stroke-width: 0.8"/>
      </g>
     </g>
     <g id="text_6">
      <!-- 1.0 -->
      <g transform="translate(294.540148 241.621344) scale(0.08 -0.08)">
       <defs>
        <path id="DejaVuSans-31" d="M 794 531 
L 1825 531 
L 1825 4091 
L 703 3866 
L 703 4441 
L 1819 4666 
L 2450 4666 
L 2450 531 
L 3481 531 
L 3481 0 
L 794 0 
L 794 531 
z
" transform="scale(0.015625)"/>
       </defs>
       <use xlink:href="#DejaVuSans-31"/>
       <use xlink:href="#DejaVuSans-2e" x="63.623047"/>
       <use xlink:href="#DejaVuSans-30" x="95.410156"/>
      </g>
     </g>
    </g>
    <g id="text_7">
     <!-- Decision threshold -->
     <g transform="translate(133.780469 254.123687) scale(0.09 -0.09)">
      <defs>
       <path id="DejaVuSans-44" d="M 1259 4147 
L 1259 519 
L 2022 519 
Q 2988 519 3436 956 
Q 3884 1394 3884 2338 
Q 3884 3275 3436 3711 
Q 2988 4147 2022 4147 
L 1259 4147 
z
M 628 4666 
L 1925 4666 
Q 3281 4666 3915 4102 
Q 4550 3538 4550 2338 
Q 4550 1131 3912 565 
Q 3275 0 1925 0 
L 628 0 
L 628 4666 
z
" transform="scale(0.015625)"/>
       <path id="DejaVuSans-65" d="M 3597 1894 
L 3597 1613 
L 953 1613 
Q 991 1019 1311 708 
Q 1631 397 2203 397 
Q 2534 397 2845 478 
Q 3156 559 3463 722 
L 3463 178 
Q 3153 47 2828 -22 
Q 2503 -91 2169 -91 
Q 1331 -91 842 396 
Q 353 884 353 1716 
Q 353 2575 817 3079 
Q 1281 3584 2069 3584 
Q 2775 3584 3186 3129 
Q 3597 2675 3597 1894 
z
M 3022 2063 
Q 3016 2534 2758 2815 
Q 2500 3097 2075 3097 
Q 1594 3097 1305 2825 
Q 1016 2553 972 2059 
L 3022 2063 
z
" transform="scale(0.015625)"/>
       <path id="DejaVuSans-63" d="M 3122 3366 
L 3122 2828 
Q 2878 2963 2633 3030 
Q 2388 3097 2138 3097 
Q 1578 3097 1268 2742 
Q 959 2388 959 1747 
Q 959 1106 1268 751 
Q 1578 397 2138 397 
Q 2388 397 2633 464 
Q 2878 531 3122 666 
L 3122 134 
Q 2881 22 2623 -34 
Q 2366 -91 2075 -91 
Q 1284 -91 818 406 
Q 353 903 353 1747 
Q 353 2603 823 3093 
Q 1294 3584 2113 3584 
Q 2378 3584 2631 3529 
Q 2884 3475 3122 3366 
z
" transform="scale(0.015625)"/>
       <path id="DejaVuSans-69" d="M 603 3500 
L 1178 3500 
L 1178 0 
L 603 0 
L 603 3500 
z
M 603 4863 
L 1178 4863 
L 1178 4134 
L 603 4134 
L 603 4863 
z
" transform="scale(0.015625)"/>
       <path id="DejaVuSans-73" d="M 2834 3397 
L 2834 2853 
Q 2591 2978 2328 3040 
Q 2066 3103 1784 3103 
Q 1356 3103 1142 2972 
Q 928 2841 928 2578 
Q 928 2378 1081 2264 
Q 1234 2150 1697 2047 
L 1894 2003 
Q 2506 1872 2764 1633 
Q 3022 1394 3022 966 
Q 3022 478 2636 193 
Q 2250 -91 1575 -91 
Q 1294 -91 989 -36 
Q 684 19 347 128 
L 347 722 
Q 666 556 975 473 
Q 1284 391 1588 391 
Q 1994 391 2212 530 
Q 2431 669 2431 922 
Q 2431 1156 2273 1281 
Q 2116 1406 1581 1522 
L 1381 1569 
Q 847 1681 609 1914 
Q 372 2147 372 2553 
Q 372 3047 722 3315 
Q 1072 3584 1716 3584 
Q 2034 3584 2315 3537 
Q 2597 3491 2834 3397 
z
" transform="scale(0.015625)"/>
       <path id="DejaVuSans-6f" d="M 1959 3097 
Q 1497 3097 1228 2736 
Q 959 2375 959 1747 
Q 959 1119 1226 758 
Q 1494 397 1959 397 
Q 2419 397 2687 759 
Q 2956 1122 2956 1747 
Q 2956 2369 2687 2733 
Q 2419 3097 1959 3097 
z
M 1959 3584 
Q 2709 3584 3137 3096 
Q 3566 2609 3566 1747 
Q 3566 888 3137 398 
Q 2709 -91 1959 -91 
Q 1206 -91 779 398 
Q 353 888 353 1747 
Q 353 2609 779 3096 
Q 1206 3584 1959 3584 
z
" transform="scale(0.015625)"/>
       <path id="DejaVuSans-6e" d="M 3513 2113 
L 3513 0 
L 2938 0 
L 2938 2094 
Q 2938 2591 2744 2837 
Q 2550 3084 2163 3084 
Q 1697 3084 1428 2787 
Q 1159 2491 1159 1978 
L 1159 0 
L 581 0 
L 581 3500 
L 1159 3500 
L 1159 2956 
Q 1366 3272 1645 3428 
Q 1925 3584 2291 3584 
Q 2894 3584 3203 3211 
Q 3513 2838 3513 2113 
z
" transform="scale(0.015625)"/>
       <path id="DejaVuSans-20" transform="scale(0.015625)"/>
       <path id="DejaVuSans-74" d="M 1172 4494 
L 1172 3500 
L 2356 3500 
L 2356 3053 
L 1172 3053 
L 1172 1153 
Q 1172 725 1289 603 
Q 1406 481 1766 481 
L 2356 481 
L 2356 0 
L 1766 0 
Q 1100 0 847 248 
Q 594 497 594 1153 
L 594 3053 
L 172 3053 
L 172 3500 
L 594 3500 
L 594 4494 
L 1172 4494 
z
" transform="scale(0.015625)"/>
       <path id="DejaVuSans-68" d="M 3513 2113 
L 3513 0 
L 2938 0 
L 2938 2094 
Q 2938 2591 2744 2837 
Q 2550 3084 2163 3084 
Q 1697 3084 1428 2787 
Q 1159 2491 1159 1978 
L 1159 0 
L 581 0 
L 581 4863 
L 1159 4863 
L 1159 2956 
Q 1366 3272 1645 3428 
Q 1925 3584 2291 3584 
Q 2894 3584 3203 3211 
Q 3513 2838 3513 2113 
z
" transform="scale(0.015625)"/>
       <path id="DejaVuSans-72" d="M 2631 2963 
Q 2534 3019 2420 3045 
Q 2306 3072 2169 3072 
Q 1681 3072 1420 2755 
Q 1159 2438 1159 1844 
L 1159 0 
L 581 0 
L 581 3500 
L 1159 3500 
L 1159 2956 
Q 1341 3275 1631 3429 
Q 1922 3584 2338 3584 
Q 2397 3584 2469 3576 
Q 2541 3569 2628 3553 
L 2631 2963 
z
" transform="scale(0.015625)"/>
       <path id="DejaVuSans-6c" d="M 603 4863 
L 1178 4863 
L 1178 0 
L 603 0 
L 603 4863 
z
" transform="scale(0.015625)"/>
       <path id="DejaVuSans-64" d="M 2906 2969 
L 2906 4863 
L 3481 4863 
L 3481 0 
L 2906 0 
L 2906 525 
Q 2725 213 2448 61 
Q 2172 -91 1784 -91 
Q 1150 -91 751 415 
Q 353 922 353 1747 
Q 353 2572 751 3078 
Q 1150 3584 1784 3584 
Q 2172 3584 2448 3432 
Q 2725 3281 2906 2969 
z
M 947 1747 
Q 947 1113 1208 752 
Q 1469 391 1925 391 
Q 2381 391 2643 752 
Q 2906 1113 2906 1747 
Q 2906 2381 2643 2742 
Q 2381 3103 1925 3103 
Q 1469 3103 1208 2742 
Q 947 2381 947 1747 
z
" transform="scale(0.015625)"/>
      </defs>
      <use xlink:href="#DejaVuSans-44"/>
      <use xlink:href="#DejaVuSans-65" x="77.001953"/>
      <use xlink:href="#DejaVuSans-63" x="138.525391"/>
      <use xlink:href="#DejaVuSans-69" x="193.505859"/>
      <use xlink:href="#DejaVuSans-73" x="221.289062"/>
      <use xlink:href="#DejaVuSans-69" x="273.388672"/>
      <use xlink:href="#DejaVuSans-6f" x="301.171875"/>
      <use xlink:href="#DejaVuSans-6e" x="362.353516"/>
      <use xlink:href="#DejaVuSans-20" x="425.732422"/>
      <use xlink:href="#DejaVuSans-74" x="457.519531"/>
      <use xlink:href="#DejaVuSans-68" x="496.728516"/>
      <use xlink:href="#DejaVuSans-72" x="560.107422"/>
      <use xlink:href="#DejaVuSans-65" x="598.970703"/>
      <use xlink:href="#DejaVuSans-73" x="660.494141"/>
      <use xlink:href="#DejaVuSans-68" x="712.59375"/>
      <use xlink:href="#DejaVuSans-6f" x="775.972656"/>
      <use xlink:href="#DejaVuSans-6c" x="837.154297"/>
      <use xlink:href="#DejaVuSans-64" x="864.9375"/>
     </g>
    </g>
   </g>
   <g id="matplotlib.axis_2">
    <g id="ytick_1">
     <g id="line2d_7">
      <defs>
       <path id="m811cb5cf9a" d="M 0 0 
L -3.5 0 
" style="stroke: #000000; stroke-width: 0.8"/>
      </defs>
      <g>
       <use xlink:href="#m811cb5cf9a" x="40.439375" y="220.275709" style="stroke: #000000; stroke-width: 0.8"/>
      </g>
     </g>
     <g id="text_8">
      <!-- 0 -->
      <g transform="translate(28.349375 223.315084) scale(0.08 -0.08)">
       <use xlink:href="#DejaVuSans-30"/>
      </g>
     </g>
    </g>
    <g id="ytick_2">
     <g id="line2d_8">
      <g>
       <use xlink:href="#m811cb5cf9a" x="40.439375" y="195.653939" style="stroke: #000000; stroke-width: 0.8"/>
      </g>
     </g>
     <g id="text_9">
      <!-- 20 -->
      <g transform="translate(23.259375 198.693314) scale(0.08 -0.08)">
       <use xlink:href="#DejaVuSans-32"/>
       <use xlink:href="#DejaVuSans-30" x="63.623047"/>
      </g>
     </g>
    </g>
    <g id="ytick_3">
     <g id="line2d_9">
      <g>
       <use xlink:href="#m811cb5cf9a" x="40.439375" y="171.032169" style="stroke: #000000; stroke-width: 0.8"/>
      </g>
     </g>
     <g id="text_10">
      <!-- 40 -->
      <g transform="translate(23.259375 174.071544) scale(0.08 -0.08)">
       <use xlink:href="#DejaVuSans-34"/>
       <use xlink:href="#DejaVuSans-30" x="63.623047"/>
      </g>
     </g>
    </g>
    <g id="ytick_4">
     <g id="line2d_10">
      <g>
       <use xlink:href="#m811cb5cf9a" x="40.439375" y="146.4104" style="stroke: #000000; stroke-width: 0.8"/>
      </g>
     </g>
     <g id="text_11">
      <!-- 60 -->
      <g transform="translate(23.259375 149.449775) scale(0.08 -0.08)">
       <use xlink:href="#DejaVuSans-36"/>
       <use xlink:href="#DejaVuSans-30" x="63.623047"/>
      </g>
     </g>
    </g>
    <g id="ytick_5">
     <g id="line2d_11">
      <g>
       <use xlink:href="#m811cb5cf9a" x="40.439375" y="121.78863" style="stroke: #000000; stroke-width: 0.8"/>
      </g>
     </g>
     <g id="text_12">
      <!-- 80 -->
      <g transform="translate(23.259375 124.828005) scale(0.08 -0.08)">
       <use xlink:href="#DejaVuSans-38"/>
       <use xlink:href="#DejaVuSans-30" x="63.623047"/>
      </g>
     </g>
    </g>
    <g id="ytick_6">
     <g id="line2d_12">
      <g>
       <use xlink:href="#m811cb5cf9a" x="40.439375" y="97.16686" style="stroke: #000000; stroke-width: 0.8"/>
      </g>
     </g>
     <g id="text_13">
      <!-- 100 -->
      <g transform="translate(18.169375 100.206235) scale(0.08 -0.08)">
       <use xlink:href="#DejaVuSans-31"/>
       <use xlink:href="#DejaVuSans-30" x="63.623047"/>
       <use xlink:href="#DejaVuSans-30" x="127.246094"/>
      </g>
     </g>
    </g>
    <g id="ytick_7">
     <g id="line2d_13">
      <g>
       <use xlink:href="#m811cb5cf9a" x="40.439375" y="72.54509" style="stroke: #000000; stroke-width: 0.8"/>
      </g>
     </g>
     <g id="text_14">
      <!-- 120 -->
      <g transform="translate(18.169375 75.584465) scale(0.08 -0.08)">
       <use xlink:href="#DejaVuSans-31"/>
       <use xlink:href="#DejaVuSans-32" x="63.623047"/>
       <use xlink:href="#DejaVuSans-30" x="127.246094"/>
      </g>
     </g>
    </g>
    <g id="ytick_8">
     <g id="line2d_14">
      <g>
       <use xlink:href="#m811cb5cf9a" x="40.439375" y="47.92332" style="stroke: #000000; stroke-width: 0.8"/>
      </g>
     </g>
     <g id="text_15">
      <!-- 140 -->
      <g transform="translate(18.169375 50.962695) scale(0.08 -0.08)">
       <use xlink:href="#DejaVuSans-31"/>
       <use xlink:href="#DejaVuSans-34" x="63.623047"/>
       <use xlink:href="#DejaVuSans-30" x="127.246094"/>
      </g>
     </g>
    </g>
    <g id="ytick_9">
     <g id="line2d_15">
      <g>
       <use xlink:href="#m811cb5cf9a" x="40.439375" y="23.301551" style="stroke: #000000; stroke-width: 0.8"/>
      </g>
     </g>
     <g id="text_16">
      <!-- 160 -->
      <g transform="translate(18.169375 26.340926) scale(0.08 -0.08)">
       <use xlink:href="#DejaVuSans-31"/>
       <use xlink:href="#DejaVuSans-36" x="63.623047"/>
       <use xlink:href="#DejaVuSans-30" x="127.246094"/>
      </g>
     </g>
    </g>
    <g id="text_17">
     <!-- Expected cost (normalized, c_miss/c_biopsy at mid sweep) -->
     <g transform="translate(12.518906 227.192781) rotate(-90) scale(0.07 -0.07)">
      <defs>
       <path id="DejaVuSans-45" d="M 628 4666 
L 3578 4666 
L 3578 4134 
L 1259 4134 
L 1259 2753 
L 3481 2753 
L 3481 2222 
L 1259 2222 
L 1259 531 
L 3634 531 
L 3634 0 
L 628 0 
L 628 4666 
z
" transform="scale(0.015625)"/>
       <path id="DejaVuSans-78" d="M 3513 3500 
L 2247 1797 
L 3578 0 
L 2900 0 
L 1881 1375 
L 863 0 
L 184 0 
L 1544 1831 
L 300 3500 
L 978 3500 
L 1906 2253 
L 2834 3500 
L 3513 3500 
z
" transform="scale(0.015625)"/>
       <path id="DejaVuSans-70" d="M 1159 525 
L 1159 -1331 
L 581 -1331 
L 581 3500 
L 1159 3500 
L 1159 2969 
Q 1341 3281 1617 3432 
Q 1894 3584 2278 3584 
Q 2916 3584 3314 3078 
Q 3713 2572 3713 1747 
Q 3713 922 3314 415 
Q 2916 -91 2278 -91 
Q 1894 -91 1617 61 
Q 1341 213 1159 525 
z
M 3116 1747 
Q 3116 2381 2855 2742 
Q 2594 3103 2138 3103 
Q 1681 3103 1420 2742 
Q 1159 2381 1159 1747 
Q 1159 1113 1420 752 
Q 1681 391 2138 391 
Q 2594 391 2855 752 
Q 3116 1113 3116 1747 
z
" transform="scale(0.015625)"/>
       <path id="DejaVuSans-28" d="M 1984 4856 
Q 1566 4138 1362 3434 
Q 1159 2731 1159 2009 
Q 1159 1288 1364 580 
Q 1569 -128 1984 -844 
L 1484 -844 
Q 1016 -109 783 600 
Q 550 1309 550 2009 
Q 550 2706 781 3412 
Q 1013 4119 1484 4856 
L 1984 4856 
z
" transform="scale(0.015625)"/>
       <path id="DejaVuSans-6d" d="M 3328 2828 
Q 3544 3216 3844 3400 
Q 4144 3584 4550 3584 
Q 5097 3584 5394 3201 
Q 5691 2819 5691 2113 
L 5691 0 
L 5113 0 
L 5113 2094 
Q 5113 2597 4934 2840 
Q 4756 3084 4391 3084 
Q 3944 3084 3684 2787 
Q 3425 2491 3425 1978 
L 3425 0 
L 2847 0 
L 2847 2094 
Q 2847 2600 2669 2842 
Q 2491 3084 2119 3084 
Q 1678 3084 1418 2786 
Q 1159 2488 1159 1978 
L 1159 0 
L 581 0 
L 581 3500 
L 1159 3500 
L 1159 2956 
Q 1356 3278 1631 3431 
Q 1906 3584 2284 3584 
Q 2666 3584 2933 3390 
Q 3200 3197 3328 2828 
z
" transform="scale(0.015625)"/>
       <path id="DejaVuSans-61" d="M 2194 1759 
Q 1497 1759 1228 1600 
Q 959 1441 959 1056 
Q 959 750 1161 570 
Q 1363 391 1709 391 
Q 2188 391 2477 730 
Q 2766 1069 2766 1631 
L 2766 1759 
L 2194 1759 
z
M 3341 1997 
L 3341 0 
L 2766 0 
L 2766 531 
Q 2569 213 2275 61 
Q 1981 -91 1556 -91 
Q 1019 -91 701 211 
Q 384 513 384 1019 
Q 384 1609 779 1909 
Q 1175 2209 1959 2209 
L 2766 2209 
L 2766 2266 
Q 2766 2663 2505 2880 
Q 2244 3097 1772 3097 
Q 1472 3097 1187 3025 
Q 903 2953 641 2809 
L 641 3341 
Q 956 3463 1253 3523 
Q 1550 3584 1831 3584 
Q 2591 3584 2966 3190 
Q 3341 2797 3341 1997 
z
" transform="scale(0.015625)"/>
       <path id="DejaVuSans-7a" d="M 353 3500 
L 3084 3500 
L 3084 2975 
L 922 459 
L 3084 459 
L 3084 0 
L 275 0 
L 275 525 
L 2438 3041 
L 353 3041 
L 353 3500 
z
" transform="scale(0.015625)"/>
       <path id="DejaVuSans-2c" d="M 750 794 
L 1409 794 
L 1409 256 
L 897 -744 
L 494 -744 
L 750 256 
L 750 794 
z
" transform="scale(0.015625)"/>
       <path id="DejaVuSans-5f" d="M 3263 -1063 
L 3263 -1509 
L -63 -1509 
L -63 -1063 
L 3263 -1063 
z
" transform="scale(0.015625)"/>
       <path id="DejaVuSans-2f" d="M 1625 4666 
L 2156 4666 
L 531 -594 
L 0 -594 
L 1625 4666 
z
" transform="scale(0.015625)"/>
       <path id="DejaVuSans-62" d="M 3116 1747 
Q 3116 2381 2855 2742 
Q 2594 3103 2138 3103 
Q 1681 3103 1420 2742 
Q 1159 2381 1159 1747 
Q 1159 1113 1420 752 
Q 1681 391 2138 391 
Q 2594 391 2855 752 
Q 3116 1113 3116 1747 
z
M 1159 2969 
Q 1341 3281 1617 3432 
Q 1894 3584 2278 3584 
Q 2916 3584 3314 3078 
Q 3713 2572 3713 1747 
Q 3713 922 3314 415 
Q 2916 -91 2278 -91 
Q 1894 -91 1617 61 
Q 1341 213 1159 525 
L 1159 0 
L 581 0 
L 581 4863 
L 1159 4863 
L 1159 2969 
z
" transform="scale(0.015625)"/>
       <path id="DejaVuSans-79" d="M 2059 -325 
Q 1816 -950 1584 -1140 
Q 1353 -1331 966 -1331 
L 506 -1331 
L 506 -850 
L 844 -850 
Q 1081 -850 1212 -737 
Q 1344 -625 1503 -206 
L 1606 56 
L 191 3500 
L 800 3500 
L 1894 763 
L 2988 3500 
L 3597 3500 
L 2059 -325 
z
" transform="scale(0.015625)"/>
       <path id="DejaVuSans-77" d="M 269 3500 
L 844 3500 
L 1563 769 
L 2278 3500 
L 2956 3500 
L 3675 769 
L 4391 3500 
L 4966 3500 
L 4050 0 
L 3372 0 
L 2619 2869 
L 1863 0 
L 1184 0 
L 269 3500 
z
" transform="scale(0.015625)"/>
       <path id="DejaVuSans-29" d="M 513 4856 
L 1013 4856 
Q 1481 4119 1714 3412 
Q 1947 2706 1947 2009 
Q 1947 1309 1714 600 
Q 1481 -109 1013 -844 
L 513 -844 
Q 928 -128 1133 580 
Q 1338 1288 1338 2009 
Q 1338 2731 1133 3434 
Q 928 4138 513 4856 
z
" transform="scale(0.015625)"/>
      </defs>
      <use xlink:href="#DejaVuSans-45"/>
      <use xlink:href="#DejaVuSans-78" x="63.183594"/>
      <use xlink:href="#DejaVuSans-70" x="122.363281"/>
      <use xlink:href="#DejaVuSans-65" x="185.839844"/>
      <use xlink:href="#DejaVuSans-63" x="247.363281"/>
      <use xlink:href="#DejaVuSans-74" x="302.34375"/>
      <use xlink:href="#DejaVuSans-65" x="341.552734"/>
      <use xlink:href="#DejaVuSans-64" x="403.076172"/>
      <use xlink:href="#DejaVuSans-20" x="466.552734"/>
      <use xlink:href="#DejaVuSans-63" x="498.339844"/>
      <use xlink:href="#DejaVuSans-6f" x="553.320312"/>
      <use xlink:href="#DejaVuSans-73" x="614.501953"/>
      <use xlink:href="#DejaVuSans-74" x="666.601562"/>
      <use xlink:href="#DejaVuSans-20" x="705.810547"/>
      <use xlink:href="#DejaVuSans-28" x="737.597656"/>
      <use xlink:href="#DejaVuSans-6e" x="776.611328"/>
      <use xlink:href="#DejaVuSans-6f" x="839.990234"/>
      <use xlink:href="#DejaVuSans-72" x="901.171875"/>
      <use xlink:href="#DejaVuSans-6d" x="940.535156"/>
      <use xlink:href="#DejaVuSans-61" x="1037.947266"/>
      <use xlink:href="#DejaVuSans-6c" x="1099.226562"/>
      <use xlink:href="#DejaVuSans-69" x="1127.009766"/>
      <use xlink:href="#DejaVuSans-7a" x="1154.792969"/>
      <use xlink:href="#DejaVuSans-65" x="1207.283203"/>
      <use xlink:href="#DejaVuSans-64" x="1268.806641"/>
      <use xlink:href="#DejaVuSans-2c" x="1332.283203"/>
      <use xlink:href="#DejaVuSans-20" x="1364.070312"/>
      <use xlink:href="#DejaVuSans-63" x="1395.857422"/>
      <use xlink:href="#DejaVuSans-5f" x="1450.837891"/>
      <use xlink:href="#DejaVuSans-6d" x="1500.837891"/>
      <use xlink:href="#DejaVuSans-69" x="1598.25"/>
      <use xlink:href="#DejaVuSans-73" x="1626.033203"/>
      <use xlink:href="#DejaVuSans-73" x="1678.132812"/>
      <use xlink:href="#DejaVuSans-2f" x="1730.232422"/>
      <use xlink:href="#DejaVuSans-63" x="1763.923828"/>
      <use xlink:href="#DejaVuSans-5f" x="1818.904297"/>
      <use xlink:href="#DejaVuSans-62" x="1868.904297"/>
      <use xlink:href="#DejaVuSans-69" x="1932.380859"/>
      <use xlink:href="#DejaVuSans-6f" x="1960.164062"/>
      <use xlink:href="#DejaVuSans-70" x="2021.345703"/>
      <use xlink:href="#DejaVuSans-73" x="2084.822266"/>
      <use xlink:href="#DejaVuSans-79" x="2136.921875"/>
      <use xlink:href="#DejaVuSans-20" x="2196.101562"/>
      <use xlink:href="#DejaVuSans-61" x="2227.888672"/>
      <use xlink:href="#DejaVuSans-74" x="2289.167969"/>
      <use xlink:href="#DejaVuSans-20" x="2328.376953"/>
      <use xlink:href="#DejaVuSans-6d" x="2360.164062"/>
      <use xlink:href="#DejaVuSans-69" x="2457.576172"/>
      <use xlink:href="#DejaVuSans-64" x="2485.359375"/>
      <use xlink:href="#DejaVuSans-20" x="2548.835938"/>
      <use xlink:href="#DejaVuSans-73" x="2580.623047"/>
      <use xlink:href="#DejaVuSans-77" x="2632.722656"/>
      <use xlink:href="#DejaVuSans-65" x="2714.509766"/>
      <use xlink:href="#DejaVuSans-65" x="2776.033203"/>
      <use xlink:href="#DejaVuSans-70" x="2837.556641"/>
      <use xlink:href="#DejaVuSans-29" x="2901.033203"/>
     </g>
    </g>
   </g>
   <g id="line2d_16">
    <path d="M 52.722955 212.817418 
L 68.842019 212.981563 
L 70.095446 209.810511 
L 71.323804 209.822822 
L 72.57723 206.647667 
L 77.540799 206.659978 
L 78.769157 203.488925 
L 86.21451 203.509444 
L 87.467937 200.334288 
L 88.696295 200.338391 
L 91.178079 193.996287 
L 103.587001 194.025012 
L 104.840428 190.853961 
L 115.995923 190.886789 
L 117.24935 187.711633 
L 155.704474 187.793706 
L 158.186259 181.451603 
L 206.568521 181.541882 
L 207.821948 178.366726 
L 210.303732 178.370831 
L 211.53209 175.195675 
L 217.749085 175.207986 
L 218.977443 172.036933 
L 241.313503 172.082074 
L 242.56693 168.906918 
L 251.240641 168.93154 
L 252.494068 165.756384 
L 253.722426 165.756384 
L 254.975852 162.585332 
L 256.20421 162.593539 
L 257.457636 159.422487 
L 258.685994 159.430694 
L 259.939421 156.259642 
L 264.90299 156.276057 
L 266.131348 153.100901 
L 271.094917 153.121419 
L 272.348343 149.950368 
L 276.058486 149.958574 
L 277.311912 146.783418 
L 278.54027 140.437211 
L 279.793696 137.266159 
L 284.757265 137.29078 
L 287.23905 124.606573 
L 288.467408 124.614779 
L 289.720834 121.447831 
L 290.949192 121.447831 
L 293.430977 115.109831 
L 295.912761 102.417415 
L 297.166188 99.258675 
L 298.394545 86.582674 
L 298.394545 86.582674 
" clip-path="url(#pae93c56a43)" style="fill: none; stroke: #636363; stroke-width: 1.5; stroke-linecap: square"/>
   </g>
   <g id="line2d_17">
    <path d="M 52.722955 206.430174 
L 55.204739 200.26863 
L 56.433097 190.771888 
L 57.686523 184.474925 
L 62.650092 184.585723 
L 63.87845 181.422878 
L 68.842019 181.451603 
L 70.095446 178.288758 
L 139.58541 178.362623 
L 140.813768 175.187467 
L 179.268892 175.195675 
L 180.522319 172.020519 
L 210.303732 172.024623 
L 211.53209 168.849467 
L 258.685994 168.890503 
L 259.939421 165.715347 
L 273.576701 165.723555 
L 274.830128 162.548399 
L 287.23905 162.56071 
L 288.467408 159.385554 
L 289.720834 159.389659 
L 290.949192 153.039347 
L 292.202619 149.868295 
L 294.684403 149.872398 
L 295.912761 146.697242 
L 297.166188 134.013034 
L 298.394545 130.858397 
L 298.394545 130.858397 
" clip-path="url(#pae93c56a43)" style="fill: none; stroke: #d62728; stroke-width: 1.5; stroke-linecap: square"/>
   </g>
   <g id="line2d_18">
    <path d="M 52.722955 212.735345 
L 53.951313 209.597122 
L 55.204739 196.966261 
L 56.433097 174.793519 
L 58.914881 155.845176 
L 60.168308 152.719264 
L 62.650092 140.113025 
L 67.613661 127.58065 
L 68.842019 121.267271 
L 71.323804 102.257374 
L 72.57723 102.273788 
L 73.805588 99.115048 
L 75.059014 99.147877 
L 76.287372 83.288513 
L 77.540799 80.129771 
L 82.504368 80.170808 
L 84.986152 73.845118 
L 86.21451 67.49891 
L 87.467937 67.503015 
L 88.696295 64.327859 
L 92.431506 64.352481 
L 93.659864 61.189636 
L 106.068786 61.201947 
L 107.322212 58.026791 
L 143.295552 58.039102 
L 220.23087 58.043205 
L 221.459228 54.868049 
L 266.131348 54.884465 
L 267.384774 51.709309 
L 283.503839 51.72162 
L 284.757265 48.546464 
L 297.166188 48.558775 
L 298.394545 45.387722 
L 298.394545 45.387722 
" clip-path="url(#pae93c56a43)" style="fill: none; stroke: #1f77b4; stroke-width: 1.5; stroke-linecap: square"/>
   </g>
   <g id="line2d_19">
    <path d="M 52.722955 219.044621 
L 67.613661 219.065139 
L 68.842019 215.889983 
L 70.095446 215.889983 
L 72.57723 209.5725 
L 75.059014 209.593019 
L 76.287372 206.434278 
L 77.540799 206.450692 
L 78.769157 203.312469 
L 80.022583 196.98678 
L 81.250941 187.473623 
L 82.504368 184.306675 
L 83.732726 171.638882 
L 84.986152 168.484243 
L 86.21451 162.170866 
L 87.467937 159.012124 
L 88.696295 159.044954 
L 89.949721 155.890315 
L 91.178079 149.552315 
L 94.91329 140.121231 
L 96.141648 133.799646 
L 101.105217 133.914547 
L 102.358643 127.584754 
L 103.587001 127.613479 
L 104.840428 118.112634 
L 106.068786 114.949789 
L 107.322212 105.436633 
L 111.032355 95.976825 
L 112.285781 86.471876 
L 113.514139 86.484187 
L 114.767566 83.333653 
L 115.995923 83.341859 
L 117.24935 80.170808 
L 118.477708 80.179015 
L 119.731134 73.832808 
L 120.959492 73.845118 
L 124.694703 64.344273 
L 125.923061 64.356584 
L 127.176488 61.181428 
L 135.850199 61.201947 
L 137.103625 58.026791 
L 154.476117 58.039102 
L 199.123168 58.043205 
L 200.376594 54.868049 
L 230.158008 54.888568 
L 231.386366 51.713412 
L 246.277072 51.72162 
L 247.530499 48.546464 
L 273.576701 48.558775 
L 274.830128 45.387722 
L 277.311912 45.387722 
L 278.54027 42.212567 
L 279.793696 42.21667 
L 281.022054 39.041514 
L 282.275481 39.041514 
L 283.503839 35.866359 
L 292.202619 35.866359 
L 293.430977 29.516048 
L 298.394545 29.520152 
L 298.394545 29.520152 
" clip-path="url(#pae93c56a43)" style="fill: none; stroke: #2ca02c; stroke-width: 1.5; stroke-linecap: square"/>
   </g>
   <g id="patch_3">
    <path d="M 40.439375 228.542594 
L 40.439375 20.038594 
" style="fill: none; stroke: #000000; stroke-width: 0.8; stroke-linejoin: miter; stroke-linecap: square"/>
   </g>
   <g id="patch_4">
    <path d="M 310.678125 228.542594 
L 310.678125 20.038594 
" style="fill: none; stroke: #000000; stroke-width: 0.8; stroke-linejoin: miter; stroke-linecap: square"/>
   </g>
   <g id="patch_5">
    <path d="M 40.439375 228.542594 
L 310.678125 228.542594 
" style="fill: none; stroke: #000000; stroke-width: 0.8; stroke-linejoin: miter; stroke-linecap: square"/>
   </g>
   <g id="patch_6">
    <path d="M 40.439375 20.038594 
L 310.678125 20.038594 
" style="fill: none; stroke: #000000; stroke-width: 0.8; stroke-linejoin: miter; stroke-linecap: square"/>
   </g>
   <g id="text_18">
    <!-- (a) Cost-threshold curve (mid-sweep ratio) -->
    <g transform="translate(66.977266 14.038594) scale(0.09 -0.09)">
     <defs>
      <path id="DejaVuSans-Bold-28" d="M 2413 -844 
L 1484 -844 
Q 1006 -72 778 623 
Q 550 1319 550 2003 
Q 550 2688 779 3389 
Q 1009 4091 1484 4856 
L 2413 4856 
Q 2013 4116 1813 3408 
Q 1613 2700 1613 2009 
Q 1613 1319 1811 609 
Q 2009 -100 2413 -844 
z
" transform="scale(0.015625)"/>
      <path id="DejaVuSans-Bold-61" d="M 2106 1575 
Q 1756 1575 1579 1456 
Q 1403 1338 1403 1106 
Q 1403 894 1545 773 
Q 1688 653 1941 653 
Q 2256 653 2472 879 
Q 2688 1106 2688 1447 
L 2688 1575 
L 2106 1575 
z
M 3816 1997 
L 3816 0 
L 2688 0 
L 2688 519 
Q 2463 200 2181 54 
Q 1900 -91 1497 -91 
Q 953 -91 614 226 
Q 275 544 275 1050 
Q 275 1666 698 1953 
Q 1122 2241 2028 2241 
L 2688 2241 
L 2688 2328 
Q 2688 2594 2478 2717 
Q 2269 2841 1825 2841 
Q 1466 2841 1156 2769 
Q 847 2697 581 2553 
L 581 3406 
Q 941 3494 1303 3539 
Q 1666 3584 2028 3584 
Q 2975 3584 3395 3211 
Q 3816 2838 3816 1997 
z
" transform="scale(0.015625)"/>
      <path id="DejaVuSans-Bold-29" d="M 513 -844 
Q 913 -100 1113 609 
Q 1313 1319 1313 2009 
Q 1313 2700 1113 3408 
Q 913 4116 513 4856 
L 1441 4856 
Q 1916 4091 2145 3389 
Q 2375 2688 2375 2003 
Q 2375 1319 2147 623 
Q 1919 -72 1441 -844 
L 513 -844 
z
" transform="scale(0.015625)"/>
      <path id="DejaVuSans-Bold-20" transform="scale(0.015625)"/>
      <path id="DejaVuSans-Bold-43" d="M 4288 256 
Q 3956 84 3597 -3 
Q 3238 -91 2847 -91 
Q 1681 -91 1000 561 
Q 319 1213 319 2328 
Q 319 3447 1000 4098 
Q 1681 4750 2847 4750 
Q 3238 4750 3597 4662 
Q 3956 4575 4288 4403 
L 4288 3438 
Q 3953 3666 3628 3772 
Q 3303 3878 2944 3878 
Q 2300 3878 1931 3465 
Q 1563 3053 1563 2328 
Q 1563 1606 1931 1193 
Q 2300 781 2944 781 
Q 3303 781 3628 887 
Q 3953 994 4288 1222 
L 4288 256 
z
" transform="scale(0.015625)"/>
      <path id="DejaVuSans-Bold-6f" d="M 2203 2784 
Q 1831 2784 1636 2517 
Q 1441 2250 1441 1747 
Q 1441 1244 1636 976 
Q 1831 709 2203 709 
Q 2569 709 2762 976 
Q 2956 1244 2956 1747 
Q 2956 2250 2762 2517 
Q 2569 2784 2203 2784 
z
M 2203 3584 
Q 3106 3584 3614 3096 
Q 4122 2609 4122 1747 
Q 4122 884 3614 396 
Q 3106 -91 2203 -91 
Q 1297 -91 786 396 
Q 275 884 275 1747 
Q 275 2609 786 3096 
Q 1297 3584 2203 3584 
z
" transform="scale(0.015625)"/>
      <path id="DejaVuSans-Bold-73" d="M 3272 3391 
L 3272 2541 
Q 2913 2691 2578 2766 
Q 2244 2841 1947 2841 
Q 1628 2841 1473 2761 
Q 1319 2681 1319 2516 
Q 1319 2381 1436 2309 
Q 1553 2238 1856 2203 
L 2053 2175 
Q 2913 2066 3209 1816 
Q 3506 1566 3506 1031 
Q 3506 472 3093 190 
Q 2681 -91 1863 -91 
Q 1516 -91 1145 -36 
Q 775 19 384 128 
L 384 978 
Q 719 816 1070 734 
Q 1422 653 1784 653 
Q 2113 653 2278 743 
Q 2444 834 2444 1013 
Q 2444 1163 2330 1236 
Q 2216 1309 1875 1350 
L 1678 1375 
Q 931 1469 631 1722 
Q 331 1975 331 2491 
Q 331 3047 712 3315 
Q 1094 3584 1881 3584 
Q 2191 3584 2531 3537 
Q 2872 3491 3272 3391 
z
" transform="scale(0.015625)"/>
      <path id="DejaVuSans-Bold-74" d="M 1759 4494 
L 1759 3500 
L 2913 3500 
L 2913 2700 
L 1759 2700 
L 1759 1216 
Q 1759 972 1856 886 
Q 1953 800 2241 800 
L 2816 800 
L 2816 0 
L 1856 0 
Q 1194 0 917 276 
Q 641 553 641 1216 
L 641 2700 
L 84 2700 
L 84 3500 
L 641 3500 
L 641 4494 
L 1759 4494 
z
" transform="scale(0.015625)"/>
      <path id="DejaVuSans-Bold-2d" d="M 347 2297 
L 2309 2297 
L 2309 1388 
L 347 1388 
L 347 2297 
z
" transform="scale(0.015625)"/>
      <path id="DejaVuSans-Bold-68" d="M 4056 2131 
L 4056 0 
L 2931 0 
L 2931 347 
L 2931 1625 
Q 2931 2084 2911 2256 
Q 2891 2428 2841 2509 
Q 2775 2619 2662 2680 
Q 2550 2741 2406 2741 
Q 2056 2741 1856 2470 
Q 1656 2200 1656 1722 
L 1656 0 
L 538 0 
L 538 4863 
L 1656 4863 
L 1656 2988 
Q 1909 3294 2193 3439 
Q 2478 3584 2822 3584 
Q 3428 3584 3742 3212 
Q 4056 2841 4056 2131 
z
" transform="scale(0.015625)"/>
      <path id="DejaVuSans-Bold-72" d="M 3138 2547 
Q 2991 2616 2845 2648 
Q 2700 2681 2553 2681 
Q 2122 2681 1889 2404 
Q 1656 2128 1656 1613 
L 1656 0 
L 538 0 
L 538 3500 
L 1656 3500 
L 1656 2925 
Q 1872 3269 2151 3426 
Q 2431 3584 2822 3584 
Q 2878 3584 2943 3579 
Q 3009 3575 3134 3559 
L 3138 2547 
z
" transform="scale(0.015625)"/>
      <path id="DejaVuSans-Bold-65" d="M 4031 1759 
L 4031 1441 
L 1416 1441 
Q 1456 1047 1700 850 
Q 1944 653 2381 653 
Q 2734 653 3104 758 
Q 3475 863 3866 1075 
L 3866 213 
Q 3469 63 3072 -14 
Q 2675 -91 2278 -91 
Q 1328 -91 801 392 
Q 275 875 275 1747 
Q 275 2603 792 3093 
Q 1309 3584 2216 3584 
Q 3041 3584 3536 3087 
Q 4031 2591 4031 1759 
z
M 2881 2131 
Q 2881 2450 2695 2645 
Q 2509 2841 2209 2841 
Q 1884 2841 1681 2658 
Q 1478 2475 1428 2131 
L 2881 2131 
z
" transform="scale(0.015625)"/>
      <path id="DejaVuSans-Bold-6c" d="M 538 4863 
L 1656 4863 
L 1656 0 
L 538 0 
L 538 4863 
z
" transform="scale(0.015625)"/>
      <path id="DejaVuSans-Bold-64" d="M 2919 2988 
L 2919 4863 
L 4044 4863 
L 4044 0 
L 2919 0 
L 2919 506 
Q 2688 197 2409 53 
Q 2131 -91 1766 -91 
Q 1119 -91 703 423 
Q 288 938 288 1747 
Q 288 2556 703 3070 
Q 1119 3584 1766 3584 
Q 2128 3584 2408 3439 
Q 2688 3294 2919 2988 
z
M 2181 722 
Q 2541 722 2730 984 
Q 2919 1247 2919 1747 
Q 2919 2247 2730 2509 
Q 2541 2772 2181 2772 
Q 1825 2772 1636 2509 
Q 1447 2247 1447 1747 
Q 1447 1247 1636 984 
Q 1825 722 2181 722 
z
" transform="scale(0.015625)"/>
      <path id="DejaVuSans-Bold-63" d="M 3366 3391 
L 3366 2478 
Q 3138 2634 2908 2709 
Q 2678 2784 2431 2784 
Q 1963 2784 1702 2511 
Q 1441 2238 1441 1747 
Q 1441 1256 1702 982 
Q 1963 709 2431 709 
Q 2694 709 2930 787 
Q 3166 866 3366 1019 
L 3366 103 
Q 3103 6 2833 -42 
Q 2563 -91 2291 -91 
Q 1344 -91 809 395 
Q 275 881 275 1747 
Q 275 2613 809 3098 
Q 1344 3584 2291 3584 
Q 2566 3584 2833 3536 
Q 3100 3488 3366 3391 
z
" transform="scale(0.015625)"/>
      <path id="DejaVuSans-Bold-75" d="M 500 1363 
L 500 3500 
L 1625 3500 
L 1625 3150 
Q 1625 2866 1622 2436 
Q 1619 2006 1619 1863 
Q 1619 1441 1641 1255 
Q 1663 1069 1716 984 
Q 1784 875 1895 815 
Q 2006 756 2150 756 
Q 2500 756 2700 1025 
Q 2900 1294 2900 1772 
L 2900 3500 
L 4019 3500 
L 4019 0 
L 2900 0 
L 2900 506 
Q 2647 200 2364 54 
Q 2081 -91 1741 -91 
Q 1134 -91 817 281 
Q 500 653 500 1363 
z
" transform="scale(0.015625)"/>
      <path id="DejaVuSans-Bold-76" d="M 97 3500 
L 1216 3500 
L 2088 1081 
L 2956 3500 
L 4078 3500 
L 2700 0 
L 1472 0 
L 97 3500 
z
" transform="scale(0.015625)"/>
      <path id="DejaVuSans-Bold-6d" d="M 3781 2919 
Q 3994 3244 4286 3414 
Q 4578 3584 4928 3584 
Q 5531 3584 5847 3212 
Q 6163 2841 6163 2131 
L 6163 0 
L 5038 0 
L 5038 1825 
Q 5041 1866 5042 1909 
Q 5044 1953 5044 2034 
Q 5044 2406 4934 2573 
Q 4825 2741 4581 2741 
Q 4263 2741 4089 2478 
Q 3916 2216 3909 1719 
L 3909 0 
L 2784 0 
L 2784 1825 
Q 2784 2406 2684 2573 
Q 2584 2741 2328 2741 
Q 2006 2741 1831 2477 
Q 1656 2213 1656 1722 
L 1656 0 
L 531 0 
L 531 3500 
L 1656 3500 
L 1656 2988 
Q 1863 3284 2130 3434 
Q 2397 3584 2719 3584 
Q 3081 3584 3359 3409 
Q 3638 3234 3781 2919 
z
" transform="scale(0.015625)"/>
      <path id="DejaVuSans-Bold-69" d="M 538 3500 
L 1656 3500 
L 1656 0 
L 538 0 
L 538 3500 
z
M 538 4863 
L 1656 4863 
L 1656 3950 
L 538 3950 
L 538 4863 
z
" transform="scale(0.015625)"/>
      <path id="DejaVuSans-Bold-77" d="M 225 3500 
L 1313 3500 
L 1900 1088 
L 2491 3500 
L 3425 3500 
L 4013 1113 
L 4603 3500 
L 5691 3500 
L 4769 0 
L 3547 0 
L 2956 2406 
L 2369 0 
L 1147 0 
L 225 3500 
z
" transform="scale(0.015625)"/>
      <path id="DejaVuSans-Bold-70" d="M 1656 506 
L 1656 -1331 
L 538 -1331 
L 538 3500 
L 1656 3500 
L 1656 2988 
Q 1888 3294 2169 3439 
Q 2450 3584 2816 3584 
Q 3463 3584 3878 3070 
Q 4294 2556 4294 1747 
Q 4294 938 3878 423 
Q 3463 -91 2816 -91 
Q 2450 -91 2169 54 
Q 1888 200 1656 506 
z
M 2400 2772 
Q 2041 2772 1848 2508 
Q 1656 2244 1656 1747 
Q 1656 1250 1848 986 
Q 2041 722 2400 722 
Q 2759 722 2948 984 
Q 3138 1247 3138 1747 
Q 3138 2247 2948 2509 
Q 2759 2772 2400 2772 
z
" transform="scale(0.015625)"/>
     </defs>
     <use xlink:href="#DejaVuSans-Bold-28"/>
     <use xlink:href="#DejaVuSans-Bold-61" x="45.703125"/>
     <use xlink:href="#DejaVuSans-Bold-29" x="113.183594"/>
     <use xlink:href="#DejaVuSans-Bold-20" x="158.886719"/>
     <use xlink:href="#DejaVuSans-Bold-43" x="193.701172"/>
     <use xlink:href="#DejaVuSans-Bold-6f" x="267.089844"/>
     <use xlink:href="#DejaVuSans-Bold-73" x="335.791016"/>
     <use xlink:href="#DejaVuSans-Bold-74" x="395.3125"/>
     <use xlink:href="#DejaVuSans-Bold-2d" x="443.115234"/>
     <use xlink:href="#DejaVuSans-Bold-74" x="484.619141"/>
     <use xlink:href="#DejaVuSans-Bold-68" x="532.421875"/>
     <use xlink:href="#DejaVuSans-Bold-72" x="603.613281"/>
     <use xlink:href="#DejaVuSans-Bold-65" x="652.929688"/>
     <use xlink:href="#DejaVuSans-Bold-73" x="720.751953"/>
     <use xlink:href="#DejaVuSans-Bold-68" x="780.273438"/>
     <use xlink:href="#DejaVuSans-Bold-6f" x="851.464844"/>
     <use xlink:href="#DejaVuSans-Bold-6c" x="920.166016"/>
     <use xlink:href="#DejaVuSans-Bold-64" x="954.443359"/>
     <use xlink:href="#DejaVuSans-Bold-20" x="1026.025391"/>
     <use xlink:href="#DejaVuSans-Bold-63" x="1060.839844"/>
     <use xlink:href="#DejaVuSans-Bold-75" x="1120.117188"/>
     <use xlink:href="#DejaVuSans-Bold-72" x="1191.308594"/>
     <use xlink:href="#DejaVuSans-Bold-76" x="1240.625"/>
     <use xlink:href="#DejaVuSans-Bold-65" x="1305.810547"/>
     <use xlink:href="#DejaVuSans-Bold-20" x="1373.632812"/>
     <use xlink:href="#DejaVuSans-Bold-28" x="1408.447266"/>
     <use xlink:href="#DejaVuSans-Bold-6d" x="1454.150391"/>
     <use xlink:href="#DejaVuSans-Bold-69" x="1558.349609"/>
     <use xlink:href="#DejaVuSans-Bold-64" x="1592.626953"/>
     <use xlink:href="#DejaVuSans-Bold-2d" x="1664.208984"/>
     <use xlink:href="#DejaVuSans-Bold-73" x="1705.712891"/>
     <use xlink:href="#DejaVuSans-Bold-77" x="1765.234375"/>
     <use xlink:href="#DejaVuSans-Bold-65" x="1857.617188"/>
     <use xlink:href="#DejaVuSans-Bold-65" x="1925.439453"/>
     <use xlink:href="#DejaVuSans-Bold-70" x="1993.261719"/>
     <use xlink:href="#DejaVuSans-Bold-20" x="2064.84375"/>
     <use xlink:href="#DejaVuSans-Bold-72" x="2099.658203"/>
     <use xlink:href="#DejaVuSans-Bold-61" x="2148.974609"/>
     <use xlink:href="#DejaVuSans-Bold-74" x="2216.455078"/>
     <use xlink:href="#DejaVuSans-Bold-69" x="2264.257812"/>
     <use xlink:href="#DejaVuSans-Bold-6f" x="2298.535156"/>
     <use xlink:href="#DejaVuSans-Bold-29" x="2367.236328"/>
    </g>
   </g>
   <g id="legend_1">
    <g id="patch_7">
     <path d="M 228.4325 225.042594 
L 305.778125 225.042594 
Q 307.178125 225.042594 307.178125 223.642594 
L 307.178125 183.243844 
Q 307.178125 181.843844 305.778125 181.843844 
L 228.4325 181.843844 
Q 227.0325 181.843844 227.0325 183.243844 
L 227.0325 223.642594 
Q 227.0325 225.042594 228.4325 225.042594 
z
" style="fill: #ffffff; opacity: 0.8; stroke: #cccccc; stroke-linejoin: miter"/>
    </g>
    <g id="line2d_20">
     <path d="M 229.8325 187.51275 
L 236.8325 187.51275 
L 243.8325 187.51275 
" style="fill: none; stroke: #636363; stroke-width: 1.5; stroke-linecap: square"/>
    </g>
    <g id="text_19">
     <!-- EfficientNet-B3 -->
     <g transform="translate(249.4325 189.96275) scale(0.07 -0.07)">
      <defs>
       <path id="DejaVuSans-66" d="M 2375 4863 
L 2375 4384 
L 1825 4384 
Q 1516 4384 1395 4259 
Q 1275 4134 1275 3809 
L 1275 3500 
L 2222 3500 
L 2222 3053 
L 1275 3053 
L 1275 0 
L 697 0 
L 697 3053 
L 147 3053 
L 147 3500 
L 697 3500 
L 697 3744 
Q 697 4328 969 4595 
Q 1241 4863 1831 4863 
L 2375 4863 
z
" transform="scale(0.015625)"/>
       <path id="DejaVuSans-4e" d="M 628 4666 
L 1478 4666 
L 3547 763 
L 3547 4666 
L 4159 4666 
L 4159 0 
L 3309 0 
L 1241 3903 
L 1241 0 
L 628 0 
L 628 4666 
z
" transform="scale(0.015625)"/>
       <path id="DejaVuSans-2d" d="M 313 2009 
L 1997 2009 
L 1997 1497 
L 313 1497 
L 313 2009 
z
" transform="scale(0.015625)"/>
       <path id="DejaVuSans-42" d="M 1259 2228 
L 1259 519 
L 2272 519 
Q 2781 519 3026 730 
Q 3272 941 3272 1375 
Q 3272 1813 3026 2020 
Q 2781 2228 2272 2228 
L 1259 2228 
z
M 1259 4147 
L 1259 2741 
L 2194 2741 
Q 2656 2741 2882 2914 
Q 3109 3088 3109 3444 
Q 3109 3797 2882 3972 
Q 2656 4147 2194 4147 
L 1259 4147 
z
M 628 4666 
L 2241 4666 
Q 2963 4666 3353 4366 
Q 3744 4066 3744 3513 
Q 3744 3084 3544 2831 
Q 3344 2578 2956 2516 
Q 3422 2416 3680 2098 
Q 3938 1781 3938 1306 
Q 3938 681 3513 340 
Q 3088 0 2303 0 
L 628 0 
L 628 4666 
z
" transform="scale(0.015625)"/>
       <path id="DejaVuSans-33" d="M 2597 2516 
Q 3050 2419 3304 2112 
Q 3559 1806 3559 1356 
Q 3559 666 3084 287 
Q 2609 -91 1734 -91 
Q 1441 -91 1130 -33 
Q 819 25 488 141 
L 488 750 
Q 750 597 1062 519 
Q 1375 441 1716 441 
Q 2309 441 2620 675 
Q 2931 909 2931 1356 
Q 2931 1769 2642 2001 
Q 2353 2234 1838 2234 
L 1294 2234 
L 1294 2753 
L 1863 2753 
Q 2328 2753 2575 2939 
Q 2822 3125 2822 3475 
Q 2822 3834 2567 4026 
Q 2313 4219 1838 4219 
Q 1578 4219 1281 4162 
Q 984 4106 628 3988 
L 628 4550 
Q 988 4650 1302 4700 
Q 1616 4750 1894 4750 
Q 2613 4750 3031 4423 
Q 3450 4097 3450 3541 
Q 3450 3153 3228 2886 
Q 3006 2619 2597 2516 
z
" transform="scale(0.015625)"/>
      </defs>
      <use xlink:href="#DejaVuSans-45"/>
      <use xlink:href="#DejaVuSans-66" x="63.183594"/>
      <use xlink:href="#DejaVuSans-66" x="98.388672"/>
      <use xlink:href="#DejaVuSans-69" x="133.59375"/>
      <use xlink:href="#DejaVuSans-63" x="161.376953"/>
      <use xlink:href="#DejaVuSans-69" x="216.357422"/>
      <use xlink:href="#DejaVuSans-65" x="244.140625"/>
      <use xlink:href="#DejaVuSans-6e" x="305.664062"/>
      <use xlink:href="#DejaVuSans-74" x="369.042969"/>
      <use xlink:href="#DejaVuSans-4e" x="408.251953"/>
      <use xlink:href="#DejaVuSans-65" x="483.056641"/>
      <use xlink:href="#DejaVuSans-74" x="544.580078"/>
      <use xlink:href="#DejaVuSans-2d" x="583.789062"/>
      <use xlink:href="#DejaVuSans-42" x="616.248047"/>
      <use xlink:href="#DejaVuSans-33" x="684.851562"/>
     </g>
    </g>
    <g id="line2d_21">
     <path d="M 229.8325 197.787437 
L 236.8325 197.787437 
L 243.8325 197.787437 
" style="fill: none; stroke: #d62728; stroke-width: 1.5; stroke-linecap: square"/>
    </g>
    <g id="text_20">
     <!-- Q-VIB+TokFT -->
     <g transform="translate(249.4325 200.237437) scale(0.07 -0.07)">
      <defs>
       <path id="DejaVuSans-51" d="M 2522 4238 
Q 1834 4238 1429 3725 
Q 1025 3213 1025 2328 
Q 1025 1447 1429 934 
Q 1834 422 2522 422 
Q 3209 422 3611 934 
Q 4013 1447 4013 2328 
Q 4013 3213 3611 3725 
Q 3209 4238 2522 4238 
z
M 3406 84 
L 4238 -825 
L 3475 -825 
L 2784 -78 
Q 2681 -84 2626 -87 
Q 2572 -91 2522 -91 
Q 1538 -91 948 567 
Q 359 1225 359 2328 
Q 359 3434 948 4092 
Q 1538 4750 2522 4750 
Q 3503 4750 4090 4092 
Q 4678 3434 4678 2328 
Q 4678 1516 4351 937 
Q 4025 359 3406 84 
z
" transform="scale(0.015625)"/>
       <path id="DejaVuSans-56" d="M 1831 0 
L 50 4666 
L 709 4666 
L 2188 738 
L 3669 4666 
L 4325 4666 
L 2547 0 
L 1831 0 
z
" transform="scale(0.015625)"/>
       <path id="DejaVuSans-49" d="M 628 4666 
L 1259 4666 
L 1259 0 
L 628 0 
L 628 4666 
z
" transform="scale(0.015625)"/>
       <path id="DejaVuSans-2b" d="M 2944 4013 
L 2944 2272 
L 4684 2272 
L 4684 1741 
L 2944 1741 
L 2944 0 
L 2419 0 
L 2419 1741 
L 678 1741 
L 678 2272 
L 2419 2272 
L 2419 4013 
L 2944 4013 
z
" transform="scale(0.015625)"/>
       <path id="DejaVuSans-54" d="M -19 4666 
L 3928 4666 
L 3928 4134 
L 2272 4134 
L 2272 0 
L 1638 0 
L 1638 4134 
L -19 4134 
L -19 4666 
z
" transform="scale(0.015625)"/>
       <path id="DejaVuSans-6b" d="M 581 4863 
L 1159 4863 
L 1159 1991 
L 2875 3500 
L 3609 3500 
L 1753 1863 
L 3688 0 
L 2938 0 
L 1159 1709 
L 1159 0 
L 581 0 
L 581 4863 
z
" transform="scale(0.015625)"/>
       <path id="DejaVuSans-46" d="M 628 4666 
L 3309 4666 
L 3309 4134 
L 1259 4134 
L 1259 2759 
L 3109 2759 
L 3109 2228 
L 1259 2228 
L 1259 0 
L 628 0 
L 628 4666 
z
" transform="scale(0.015625)"/>
      </defs>
      <use xlink:href="#DejaVuSans-51"/>
      <use xlink:href="#DejaVuSans-2d" x="81.460938"/>
      <use xlink:href="#DejaVuSans-56" x="111.669922"/>
      <use xlink:href="#DejaVuSans-49" x="180.078125"/>
      <use xlink:href="#DejaVuSans-42" x="209.570312"/>
      <use xlink:href="#DejaVuSans-2b" x="278.173828"/>
      <use xlink:href="#DejaVuSans-54" x="361.962891"/>
      <use xlink:href="#DejaVuSans-6f" x="406.046875"/>
      <use xlink:href="#DejaVuSans-6b" x="467.228516"/>
      <use xlink:href="#DejaVuSans-46" x="525.138672"/>
      <use xlink:href="#DejaVuSans-54" x="580.908203"/>
     </g>
    </g>
    <g id="line2d_22">
     <path d="M 229.8325 208.062125 
L 236.8325 208.062125 
L 243.8325 208.062125 
" style="fill: none; stroke: #1f77b4; stroke-width: 1.5; stroke-linecap: square"/>
    </g>
    <g id="text_21">
     <!-- Std VIB -->
     <g transform="translate(249.4325 210.512125) scale(0.07 -0.07)">
      <defs>
       <path id="DejaVuSans-53" d="M 3425 4513 
L 3425 3897 
Q 3066 4069 2747 4153 
Q 2428 4238 2131 4238 
Q 1616 4238 1336 4038 
Q 1056 3838 1056 3469 
Q 1056 3159 1242 3001 
Q 1428 2844 1947 2747 
L 2328 2669 
Q 3034 2534 3370 2195 
Q 3706 1856 3706 1288 
Q 3706 609 3251 259 
Q 2797 -91 1919 -91 
Q 1588 -91 1214 -16 
Q 841 59 441 206 
L 441 856 
Q 825 641 1194 531 
Q 1563 422 1919 422 
Q 2459 422 2753 634 
Q 3047 847 3047 1241 
Q 3047 1584 2836 1778 
Q 2625 1972 2144 2069 
L 1759 2144 
Q 1053 2284 737 2584 
Q 422 2884 422 3419 
Q 422 4038 858 4394 
Q 1294 4750 2059 4750 
Q 2388 4750 2728 4690 
Q 3069 4631 3425 4513 
z
" transform="scale(0.015625)"/>
      </defs>
      <use xlink:href="#DejaVuSans-53"/>
      <use xlink:href="#DejaVuSans-74" x="63.476562"/>
      <use xlink:href="#DejaVuSans-64" x="102.685547"/>
      <use xlink:href="#DejaVuSans-20" x="166.162109"/>
      <use xlink:href="#DejaVuSans-56" x="197.949219"/>
      <use xlink:href="#DejaVuSans-49" x="266.357422"/>
      <use xlink:href="#DejaVuSans-42" x="295.849609"/>
     </g>
    </g>
    <g id="line2d_23">
     <path d="M 229.8325 218.336812 
L 236.8325 218.336812 
L 243.8325 218.336812 
" style="fill: none; stroke: #2ca02c; stroke-width: 1.5; stroke-linecap: square"/>
    </g>
    <g id="text_22">
     <!-- Std VIB + QCTS -->
     <g transform="translate(249.4325 220.786812) scale(0.07 -0.07)">
      <defs>
       <path id="DejaVuSans-43" d="M 4122 4306 
L 4122 3641 
Q 3803 3938 3442 4084 
Q 3081 4231 2675 4231 
Q 1875 4231 1450 3742 
Q 1025 3253 1025 2328 
Q 1025 1406 1450 917 
Q 1875 428 2675 428 
Q 3081 428 3442 575 
Q 3803 722 4122 1019 
L 4122 359 
Q 3791 134 3420 21 
Q 3050 -91 2638 -91 
Q 1578 -91 968 557 
Q 359 1206 359 2328 
Q 359 3453 968 4101 
Q 1578 4750 2638 4750 
Q 3056 4750 3426 4639 
Q 3797 4528 4122 4306 
z
" transform="scale(0.015625)"/>
      </defs>
      <use xlink:href="#DejaVuSans-53"/>
      <use xlink:href="#DejaVuSans-74" x="63.476562"/>
      <use xlink:href="#DejaVuSans-64" x="102.685547"/>
      <use xlink:href="#DejaVuSans-20" x="166.162109"/>
      <use xlink:href="#DejaVuSans-56" x="197.949219"/>
      <use xlink:href="#DejaVuSans-49" x="266.357422"/>
      <use xlink:href="#DejaVuSans-42" x="295.849609"/>
      <use xlink:href="#DejaVuSans-20" x="364.453125"/>
      <use xlink:href="#DejaVuSans-2b" x="396.240234"/>
      <use xlink:href="#DejaVuSans-20" x="480.029297"/>
      <use xlink:href="#DejaVuSans-51" x="511.816406"/>
      <use xlink:href="#DejaVuSans-43" x="590.527344"/>
      <use xlink:href="#DejaVuSans-54" x="660.351562"/>
      <use xlink:href="#DejaVuSans-53" x="721.435547"/>
     </g>
    </g>
   </g>
  </g>
  <g id="axes_2">
   <g id="patch_8">
    <path d="M 362.358125 228.542594 
L 632.596875 228.542594 
L 632.596875 20.038594 
L 362.358125 20.038594 
z
" style="fill: #ffffff"/>
   </g>
   <g id="matplotlib.axis_3">
    <g id="xtick_7">
     <g id="line2d_24">
      <g>
       <use xlink:href="#m397a0f81a3" x="406.78145" y="228.542594" style="stroke: #000000; stroke-width: 0.8"/>
      </g>
     </g>
     <g id="text_23">
      <!-- $\mathdefault{10^{2}}$ -->
      <g transform="translate(399.74145 241.621344) scale(0.08 -0.08)">
       <use xlink:href="#DejaVuSans-31" transform="translate(0 0.765625)"/>
       <use xlink:href="#DejaVuSans-30" transform="translate(63.623047 0.765625)"/>
       <use xlink:href="#DejaVuSans-32" transform="translate(128.203125 39.046875) scale(0.7)"/>
      </g>
     </g>
    </g>
    <g id="xtick_8">
     <g id="line2d_25">
      <g>
       <use xlink:href="#m397a0f81a3" x="513.547373" y="228.542594" style="stroke: #000000; stroke-width: 0.8"/>
      </g>
     </g>
     <g id="text_24">
      <!-- $\mathdefault{10^{3}}$ -->
      <g transform="translate(506.507373 241.621344) scale(0.08 -0.08)">
       <use xlink:href="#DejaVuSans-31" transform="translate(0 0.765625)"/>
       <use xlink:href="#DejaVuSans-30" transform="translate(63.623047 0.765625)"/>
       <use xlink:href="#DejaVuSans-33" transform="translate(128.203125 39.046875) scale(0.7)"/>
      </g>
     </g>
    </g>
    <g id="xtick_9">
     <g id="line2d_26">
      <g>
       <use xlink:href="#m397a0f81a3" x="620.313295" y="228.542594" style="stroke: #000000; stroke-width: 0.8"/>
      </g>
     </g>
     <g id="text_25">
      <!-- $\mathdefault{10^{4}}$ -->
      <g transform="translate(613.273295 241.621344) scale(0.08 -0.08)">
       <use xlink:href="#DejaVuSans-31" transform="translate(0 0.684375)"/>
       <use xlink:href="#DejaVuSans-30" transform="translate(63.623047 0.684375)"/>
       <use xlink:href="#DejaVuSans-34" transform="translate(128.203125 38.965625) scale(0.7)"/>
      </g>
     </g>
    </g>
    <g id="xtick_10">
     <g id="line2d_27">
      <defs>
       <path id="m7025fcc1bb" d="M 0 0 
L 0 2 
" style="stroke: #000000; stroke-width: 0.6"/>
      </defs>
      <g>
       <use xlink:href="#m7025fcc1bb" x="364.295018" y="228.542594" style="stroke: #000000; stroke-width: 0.6"/>
      </g>
     </g>
    </g>
    <g id="xtick_11">
     <g id="line2d_28">
      <g>
       <use xlink:href="#m7025fcc1bb" x="374.641705" y="228.542594" style="stroke: #000000; stroke-width: 0.6"/>
      </g>
     </g>
    </g>
    <g id="xtick_12">
     <g id="line2d_29">
      <g>
       <use xlink:href="#m7025fcc1bb" x="383.095563" y="228.542594" style="stroke: #000000; stroke-width: 0.6"/>
      </g>
     </g>
    </g>
    <g id="xtick_13">
     <g id="line2d_30">
      <g>
       <use xlink:href="#m7025fcc1bb" x="390.243199" y="228.542594" style="stroke: #000000; stroke-width: 0.6"/>
      </g>
     </g>
    </g>
    <g id="xtick_14">
     <g id="line2d_31">
      <g>
       <use xlink:href="#m7025fcc1bb" x="396.434763" y="228.542594" style="stroke: #000000; stroke-width: 0.6"/>
      </g>
     </g>
    </g>
    <g id="xtick_15">
     <g id="line2d_32">
      <g>
       <use xlink:href="#m7025fcc1bb" x="401.896109" y="228.542594" style="stroke: #000000; stroke-width: 0.6"/>
      </g>
     </g>
    </g>
    <g id="xtick_16">
     <g id="line2d_33">
      <g>
       <use xlink:href="#m7025fcc1bb" x="438.921195" y="228.542594" style="stroke: #000000; stroke-width: 0.6"/>
      </g>
     </g>
    </g>
    <g id="xtick_17">
     <g id="line2d_34">
      <g>
       <use xlink:href="#m7025fcc1bb" x="457.721741" y="228.542594" style="stroke: #000000; stroke-width: 0.6"/>
      </g>
     </g>
    </g>
    <g id="xtick_18">
     <g id="line2d_35">
      <g>
       <use xlink:href="#m7025fcc1bb" x="471.06094" y="228.542594" style="stroke: #000000; stroke-width: 0.6"/>
      </g>
     </g>
    </g>
    <g id="xtick_19">
     <g id="line2d_36">
      <g>
       <use xlink:href="#m7025fcc1bb" x="481.407627" y="228.542594" style="stroke: #000000; stroke-width: 0.6"/>
      </g>
     </g>
    </g>
    <g id="xtick_20">
     <g id="line2d_37">
      <g>
       <use xlink:href="#m7025fcc1bb" x="489.861486" y="228.542594" style="stroke: #000000; stroke-width: 0.6"/>
      </g>
     </g>
    </g>
    <g id="xtick_21">
     <g id="line2d_38">
      <g>
       <use xlink:href="#m7025fcc1bb" x="497.009122" y="228.542594" style="stroke: #000000; stroke-width: 0.6"/>
      </g>
     </g>
    </g>
    <g id="xtick_22">
     <g id="line2d_39">
      <g>
       <use xlink:href="#m7025fcc1bb" x="503.200686" y="228.542594" style="stroke: #000000; stroke-width: 0.6"/>
      </g>
     </g>
    </g>
    <g id="xtick_23">
     <g id="line2d_40">
      <g>
       <use xlink:href="#m7025fcc1bb" x="508.662032" y="228.542594" style="stroke: #000000; stroke-width: 0.6"/>
      </g>
     </g>
    </g>
    <g id="xtick_24">
     <g id="line2d_41">
      <g>
       <use xlink:href="#m7025fcc1bb" x="545.687118" y="228.542594" style="stroke: #000000; stroke-width: 0.6"/>
      </g>
     </g>
    </g>
    <g id="xtick_25">
     <g id="line2d_42">
      <g>
       <use xlink:href="#m7025fcc1bb" x="564.487664" y="228.542594" style="stroke: #000000; stroke-width: 0.6"/>
      </g>
     </g>
    </g>
    <g id="xtick_26">
     <g id="line2d_43">
      <g>
       <use xlink:href="#m7025fcc1bb" x="577.826863" y="228.542594" style="stroke: #000000; stroke-width: 0.6"/>
      </g>
     </g>
    </g>
    <g id="xtick_27">
     <g id="line2d_44">
      <g>
       <use xlink:href="#m7025fcc1bb" x="588.17355" y="228.542594" style="stroke: #000000; stroke-width: 0.6"/>
      </g>
     </g>
    </g>
    <g id="xtick_28">
     <g id="line2d_45">
      <g>
       <use xlink:href="#m7025fcc1bb" x="596.627409" y="228.542594" style="stroke: #000000; stroke-width: 0.6"/>
      </g>
     </g>
    </g>
    <g id="xtick_29">
     <g id="line2d_46">
      <g>
       <use xlink:href="#m7025fcc1bb" x="603.775045" y="228.542594" style="stroke: #000000; stroke-width: 0.6"/>
      </g>
     </g>
    </g>
    <g id="xtick_30">
     <g id="line2d_47">
      <g>
       <use xlink:href="#m7025fcc1bb" x="609.966608" y="228.542594" style="stroke: #000000; stroke-width: 0.6"/>
      </g>
     </g>
    </g>
    <g id="xtick_31">
     <g id="line2d_48">
      <g>
       <use xlink:href="#m7025fcc1bb" x="615.427955" y="228.542594" style="stroke: #000000; stroke-width: 0.6"/>
      </g>
     </g>
    </g>
    <g id="text_26">
     <!-- Cost ratio r = c_miss / c_biopsy (log scale) -->
     <g transform="translate(402.057813 254.123687) scale(0.09 -0.09)">
      <defs>
       <path id="DejaVuSans-3d" d="M 678 2906 
L 4684 2906 
L 4684 2381 
L 678 2381 
L 678 2906 
z
M 678 1631 
L 4684 1631 
L 4684 1100 
L 678 1100 
L 678 1631 
z
" transform="scale(0.015625)"/>
       <path id="DejaVuSans-67" d="M 2906 1791 
Q 2906 2416 2648 2759 
Q 2391 3103 1925 3103 
Q 1463 3103 1205 2759 
Q 947 2416 947 1791 
Q 947 1169 1205 825 
Q 1463 481 1925 481 
Q 2391 481 2648 825 
Q 2906 1169 2906 1791 
z
M 3481 434 
Q 3481 -459 3084 -895 
Q 2688 -1331 1869 -1331 
Q 1566 -1331 1297 -1286 
Q 1028 -1241 775 -1147 
L 775 -588 
Q 1028 -725 1275 -790 
Q 1522 -856 1778 -856 
Q 2344 -856 2625 -561 
Q 2906 -266 2906 331 
L 2906 616 
Q 2728 306 2450 153 
Q 2172 0 1784 0 
Q 1141 0 747 490 
Q 353 981 353 1791 
Q 353 2603 747 3093 
Q 1141 3584 1784 3584 
Q 2172 3584 2450 3431 
Q 2728 3278 2906 2969 
L 2906 3500 
L 3481 3500 
L 3481 434 
z
" transform="scale(0.015625)"/>
      </defs>
      <use xlink:href="#DejaVuSans-43"/>
      <use xlink:href="#DejaVuSans-6f" x="69.824219"/>
      <use xlink:href="#DejaVuSans-73" x="131.005859"/>
      <use xlink:href="#DejaVuSans-74" x="183.105469"/>
      <use xlink:href="#DejaVuSans-20" x="222.314453"/>
      <use xlink:href="#DejaVuSans-72" x="254.101562"/>
      <use xlink:href="#DejaVuSans-61" x="295.214844"/>
      <use xlink:href="#DejaVuSans-74" x="356.494141"/>
      <use xlink:href="#DejaVuSans-69" x="395.703125"/>
      <use xlink:href="#DejaVuSans-6f" x="423.486328"/>
      <use xlink:href="#DejaVuSans-20" x="484.667969"/>
      <use xlink:href="#DejaVuSans-72" x="516.455078"/>
      <use xlink:href="#DejaVuSans-20" x="557.568359"/>
      <use xlink:href="#DejaVuSans-3d" x="589.355469"/>
      <use xlink:href="#DejaVuSans-20" x="673.144531"/>
      <use xlink:href="#DejaVuSans-63" x="704.931641"/>
      <use xlink:href="#DejaVuSans-5f" x="759.912109"/>
      <use xlink:href="#DejaVuSans-6d" x="809.912109"/>
      <use xlink:href="#DejaVuSans-69" x="907.324219"/>
      <use xlink:href="#DejaVuSans-73" x="935.107422"/>
      <use xlink:href="#DejaVuSans-73" x="987.207031"/>
      <use xlink:href="#DejaVuSans-20" x="1039.306641"/>
      <use xlink:href="#DejaVuSans-2f" x="1071.09375"/>
      <use xlink:href="#DejaVuSans-20" x="1104.785156"/>
      <use xlink:href="#DejaVuSans-63" x="1136.572266"/>
      <use xlink:href="#DejaVuSans-5f" x="1191.552734"/>
      <use xlink:href="#DejaVuSans-62" x="1241.552734"/>
      <use xlink:href="#DejaVuSans-69" x="1305.029297"/>
      <use xlink:href="#DejaVuSans-6f" x="1332.8125"/>
      <use xlink:href="#DejaVuSans-70" x="1393.994141"/>
      <use xlink:href="#DejaVuSans-73" x="1457.470703"/>
      <use xlink:href="#DejaVuSans-79" x="1509.570312"/>
      <use xlink:href="#DejaVuSans-20" x="1568.75"/>
      <use xlink:href="#DejaVuSans-28" x="1600.537109"/>
      <use xlink:href="#DejaVuSans-6c" x="1639.550781"/>
      <use xlink:href="#DejaVuSans-6f" x="1667.333984"/>
      <use xlink:href="#DejaVuSans-67" x="1728.515625"/>
      <use xlink:href="#DejaVuSans-20" x="1791.992188"/>
      <use xlink:href="#DejaVuSans-73" x="1823.779297"/>
      <use xlink:href="#DejaVuSans-63" x="1875.878906"/>
      <use xlink:href="#DejaVuSans-61" x="1930.859375"/>
      <use xlink:href="#DejaVuSans-6c" x="1992.138672"/>
      <use xlink:href="#DejaVuSans-65" x="2019.921875"/>
      <use xlink:href="#DejaVuSans-29" x="2081.445312"/>
     </g>
    </g>
   </g>
   <g id="matplotlib.axis_4">
    <g id="ytick_10">
     <g id="line2d_49">
      <g>
       <use xlink:href="#m811cb5cf9a" x="362.358125" y="219.319315" style="stroke: #000000; stroke-width: 0.8"/>
      </g>
     </g>
     <g id="text_27">
      <!-- 0 -->
      <g transform="translate(350.268125 222.35869) scale(0.08 -0.08)">
       <use xlink:href="#DejaVuSans-30"/>
      </g>
     </g>
    </g>
    <g id="ytick_11">
     <g id="line2d_50">
      <g>
       <use xlink:href="#m811cb5cf9a" x="362.358125" y="191.408329" style="stroke: #000000; stroke-width: 0.8"/>
      </g>
     </g>
     <g id="text_28">
      <!-- 250 -->
      <g transform="translate(340.088125 194.447704) scale(0.08 -0.08)">
       <defs>
        <path id="DejaVuSans-35" d="M 691 4666 
L 3169 4666 
L 3169 4134 
L 1269 4134 
L 1269 2991 
Q 1406 3038 1543 3061 
Q 1681 3084 1819 3084 
Q 2600 3084 3056 2656 
Q 3513 2228 3513 1497 
Q 3513 744 3044 326 
Q 2575 -91 1722 -91 
Q 1428 -91 1123 -41 
Q 819 9 494 109 
L 494 744 
Q 775 591 1075 516 
Q 1375 441 1709 441 
Q 2250 441 2565 725 
Q 2881 1009 2881 1497 
Q 2881 1984 2565 2268 
Q 2250 2553 1709 2553 
Q 1456 2553 1204 2497 
Q 953 2441 691 2322 
L 691 4666 
z
" transform="scale(0.015625)"/>
       </defs>
       <use xlink:href="#DejaVuSans-32"/>
       <use xlink:href="#DejaVuSans-35" x="63.623047"/>
       <use xlink:href="#DejaVuSans-30" x="127.246094"/>
      </g>
     </g>
    </g>
    <g id="ytick_12">
     <g id="line2d_51">
      <g>
       <use xlink:href="#m811cb5cf9a" x="362.358125" y="163.497342" style="stroke: #000000; stroke-width: 0.8"/>
      </g>
     </g>
     <g id="text_29">
      <!-- 500 -->
      <g transform="translate(340.088125 166.536717) scale(0.08 -0.08)">
       <use xlink:href="#DejaVuSans-35"/>
       <use xlink:href="#DejaVuSans-30" x="63.623047"/>
       <use xlink:href="#DejaVuSans-30" x="127.246094"/>
      </g>
     </g>
    </g>
    <g id="ytick_13">
     <g id="line2d_52">
      <g>
       <use xlink:href="#m811cb5cf9a" x="362.358125" y="135.586356" style="stroke: #000000; stroke-width: 0.8"/>
      </g>
     </g>
     <g id="text_30">
      <!-- 750 -->
      <g transform="translate(340.088125 138.625731) scale(0.08 -0.08)">
       <defs>
        <path id="DejaVuSans-37" d="M 525 4666 
L 3525 4666 
L 3525 4397 
L 1831 0 
L 1172 0 
L 2766 4134 
L 525 4134 
L 525 4666 
z
" transform="scale(0.015625)"/>
       </defs>
       <use xlink:href="#DejaVuSans-37"/>
       <use xlink:href="#DejaVuSans-35" x="63.623047"/>
       <use xlink:href="#DejaVuSans-30" x="127.246094"/>
      </g>
     </g>
    </g>
    <g id="ytick_14">
     <g id="line2d_53">
      <g>
       <use xlink:href="#m811cb5cf9a" x="362.358125" y="107.67537" style="stroke: #000000; stroke-width: 0.8"/>
      </g>
     </g>
     <g id="text_31">
      <!-- 1000 -->
      <g transform="translate(334.998125 110.714745) scale(0.08 -0.08)">
       <use xlink:href="#DejaVuSans-31"/>
       <use xlink:href="#DejaVuSans-30" x="63.623047"/>
       <use xlink:href="#DejaVuSans-30" x="127.246094"/>
       <use xlink:href="#DejaVuSans-30" x="190.869141"/>
      </g>
     </g>
    </g>
    <g id="ytick_15">
     <g id="line2d_54">
      <g>
       <use xlink:href="#m811cb5cf9a" x="362.358125" y="79.764383" style="stroke: #000000; stroke-width: 0.8"/>
      </g>
     </g>
     <g id="text_32">
      <!-- 1250 -->
      <g transform="translate(334.998125 82.803758) scale(0.08 -0.08)">
       <use xlink:href="#DejaVuSans-31"/>
       <use xlink:href="#DejaVuSans-32" x="63.623047"/>
       <use xlink:href="#DejaVuSans-35" x="127.246094"/>
       <use xlink:href="#DejaVuSans-30" x="190.869141"/>
      </g>
     </g>
    </g>
    <g id="ytick_16">
     <g id="line2d_55">
      <g>
       <use xlink:href="#m811cb5cf9a" x="362.358125" y="51.853397" style="stroke: #000000; stroke-width: 0.8"/>
      </g>
     </g>
     <g id="text_33">
      <!-- 1500 -->
      <g transform="translate(334.998125 54.892772) scale(0.08 -0.08)">
       <use xlink:href="#DejaVuSans-31"/>
       <use xlink:href="#DejaVuSans-35" x="63.623047"/>
       <use xlink:href="#DejaVuSans-30" x="127.246094"/>
       <use xlink:href="#DejaVuSans-30" x="190.869141"/>
      </g>
     </g>
    </g>
    <g id="ytick_17">
     <g id="line2d_56">
      <g>
       <use xlink:href="#m811cb5cf9a" x="362.358125" y="23.94241" style="stroke: #000000; stroke-width: 0.8"/>
      </g>
     </g>
     <g id="text_34">
      <!-- 1750 -->
      <g transform="translate(334.998125 26.981785) scale(0.08 -0.08)">
       <use xlink:href="#DejaVuSans-31"/>
       <use xlink:href="#DejaVuSans-37" x="63.623047"/>
       <use xlink:href="#DejaVuSans-35" x="127.246094"/>
       <use xlink:href="#DejaVuSans-30" x="190.869141"/>
      </g>
     </g>
    </g>
    <g id="text_35">
     <!-- Expected cost (normalized) -->
     <g transform="translate(329.126406 186.000359) rotate(-90) scale(0.09 -0.09)">
      <use xlink:href="#DejaVuSans-45"/>
      <use xlink:href="#DejaVuSans-78" x="63.183594"/>
      <use xlink:href="#DejaVuSans-70" x="122.363281"/>
      <use xlink:href="#DejaVuSans-65" x="185.839844"/>
      <use xlink:href="#DejaVuSans-63" x="247.363281"/>
      <use xlink:href="#DejaVuSans-74" x="302.34375"/>
      <use xlink:href="#DejaVuSans-65" x="341.552734"/>
      <use xlink:href="#DejaVuSans-64" x="403.076172"/>
      <use xlink:href="#DejaVuSans-20" x="466.552734"/>
      <use xlink:href="#DejaVuSans-63" x="498.339844"/>
      <use xlink:href="#DejaVuSans-6f" x="553.320312"/>
      <use xlink:href="#DejaVuSans-73" x="614.501953"/>
      <use xlink:href="#DejaVuSans-74" x="666.601562"/>
      <use xlink:href="#DejaVuSans-20" x="705.810547"/>
      <use xlink:href="#DejaVuSans-28" x="737.597656"/>
      <use xlink:href="#DejaVuSans-6e" x="776.611328"/>
      <use xlink:href="#DejaVuSans-6f" x="839.990234"/>
      <use xlink:href="#DejaVuSans-72" x="901.171875"/>
      <use xlink:href="#DejaVuSans-6d" x="940.535156"/>
      <use xlink:href="#DejaVuSans-61" x="1037.947266"/>
      <use xlink:href="#DejaVuSans-6c" x="1099.226562"/>
      <use xlink:href="#DejaVuSans-69" x="1127.009766"/>
      <use xlink:href="#DejaVuSans-7a" x="1154.792969"/>
      <use xlink:href="#DejaVuSans-65" x="1207.283203"/>
      <use xlink:href="#DejaVuSans-64" x="1268.806641"/>
      <use xlink:href="#DejaVuSans-29" x="1332.283203"/>
     </g>
    </g>
   </g>
   <g id="line2d_57">
    <path d="M 374.641705 219.064395 
L 374.641705 219.064395 
L 374.641705 219.064395 
L 374.641705 219.065139 
L 383.111017 219.027096 
L 383.111017 219.027096 
L 383.111017 219.027096 
L 383.111017 219.02784 
L 391.581611 218.982319 
L 391.581611 218.982319 
L 391.581611 218.982319 
L 391.581611 218.983064 
L 400.056916 218.929312 
L 400.056916 218.928568 
L 400.056916 218.928568 
L 400.056916 218.928568 
L 408.52864 218.864041 
L 408.52864 218.864041 
L 408.52864 218.864041 
L 408.52864 218.864786 
L 416.998125 218.78658 
L 416.998125 218.78658 
L 416.998125 218.78658 
L 416.998125 218.787324 
L 425.470579 218.693591 
L 425.470579 218.693591 
L 425.470579 218.693591 
L 425.470579 218.694336 
L 433.943026 218.582707 
L 433.943026 218.581963 
L 433.943026 218.581963 
L 433.943026 218.581963 
L 442.412369 218.447958 
L 442.412369 218.447958 
L 442.412369 218.447958 
L 442.412369 218.448702 
L 450.884501 218.28709 
L 450.884501 218.28709 
L 450.884501 218.28709 
L 450.884501 218.287835 
L 459.355671 218.094721 
L 459.355671 218.093976 
L 459.355671 218.093976 
L 459.355671 218.093976 
L 467.827929 217.862152 
L 467.827929 217.862152 
L 467.827929 217.862152 
L 467.827929 217.862896 
L 476.299185 217.583857 
L 476.299185 217.583857 
L 476.299185 217.583857 
L 476.299185 217.584601 
L 484.770469 217.249777 
L 484.770469 217.250521 
L 484.770469 217.249777 
L 484.770469 217.249777 
L 493.241431 216.848728 
L 493.241431 216.849472 
L 493.241431 216.848728 
L 493.241431 216.848728 
L 501.713008 216.367287 
L 501.713008 216.367287 
L 501.713008 216.367287 
L 501.713008 216.368032 
L 510.18442 215.78934 
L 510.18442 215.78934 
L 510.18442 215.78934 
L 510.18442 215.790084 
L 518.656223 215.095539 
L 518.656223 215.095539 
L 518.656223 215.095539 
L 518.656223 215.096284 
L 527.127522 214.263408 
L 527.127522 214.262663 
L 527.127522 214.262663 
L 527.127522 214.262663 
L 535.599078 213.262833 
L 535.599078 213.262833 
L 535.599078 213.262833 
L 535.599078 213.263578 
L 544.070465 212.062582 
L 544.070465 212.062582 
L 544.070465 212.062582 
L 544.070465 212.063327 
L 552.541846 210.621735 
L 552.541846 210.621735 
L 552.541846 210.621735 
L 552.541846 210.62248 
L 561.013232 208.892807 
L 561.013232 208.892063 
L 561.013232 208.892063 
L 561.013232 208.892063 
L 569.484663 206.81567 
L 569.484663 206.81567 
L 569.484663 206.81567 
L 569.484663 206.816414 
L 577.956165 204.323053 
L 577.956165 204.323053 
L 577.956165 204.323053 
L 577.956165 204.323797 
L 586.427514 201.331523 
L 586.427514 201.330779 
L 586.427514 201.330779 
L 586.427514 201.330779 
L 594.898991 197.739433 
L 594.898991 197.738689 
L 594.898991 197.738689 
L 594.898991 197.738689 
L 603.370414 193.426546 
L 603.370414 193.426546 
L 603.370414 193.426546 
L 603.370414 193.427291 
L 611.841888 188.250758 
L 611.841888 188.250014 
L 611.841888 188.250014 
L 611.841888 188.250014 
L 620.313295 182.03582 
L 620.313295 182.03582 
L 620.313295 182.03582 
L 620.313295 182.036564 
" clip-path="url(#p786d400eb4)" style="fill: none; stroke: #636363; stroke-width: 1.5; stroke-linecap: square"/>
   </g>
   <g id="line2d_58">
    <path d="M 374.641705 219.023459 
L 374.641705 219.023459 
L 374.641705 219.023831 
L 374.641705 219.023831 
L 383.111017 218.97497 
L 383.111017 218.97497 
L 383.111017 218.975342 
L 383.111017 218.975342 
L 391.581611 218.916761 
L 391.581611 218.916761 
L 391.581611 218.917133 
L 391.581611 218.917133 
L 400.056916 218.847256 
L 400.056916 218.847256 
L 400.056916 218.846884 
L 400.056916 218.846884 
L 408.52864 218.762999 
L 408.52864 218.762999 
L 408.52864 218.763371 
L 408.52864 218.763371 
L 416.998125 218.662299 
L 416.998125 218.662299 
L 416.998125 218.662672 
L 416.998125 218.662672 
L 425.470579 218.541414 
L 425.470579 218.541414 
L 425.470579 218.541786 
L 425.470579 218.541786 
L 433.943026 218.396669 
L 433.943026 218.396669 
L 433.943026 218.396297 
L 433.943026 218.396297 
L 442.412369 218.22209 
L 442.412369 218.22209 
L 442.412369 218.222462 
L 442.412369 218.222462 
L 450.884501 218.012963 
L 450.884501 218.012963 
L 450.884501 218.013335 
L 450.884501 218.013335 
L 459.355671 217.762287 
L 459.355671 217.762287 
L 459.355671 217.761915 
L 459.355671 217.761915 
L 467.827929 217.460543 
L 467.827929 217.460543 
L 467.827929 217.460915 
L 467.827929 217.460915 
L 476.299185 217.09876 
L 476.299185 217.09876 
L 476.299185 217.099132 
L 476.299185 217.099132 
L 484.770469 216.664827 
L 484.770469 216.664827 
L 484.770469 216.664455 
L 484.770469 216.664455 
L 493.241431 216.143464 
L 493.241431 216.143464 
L 493.241431 216.143092 
L 493.241431 216.143092 
L 501.713008 215.517219 
L 501.713008 215.517219 
L 501.713008 215.517591 
L 501.713008 215.517591 
L 510.18442 214.765887 
L 510.18442 214.765887 
L 510.18442 214.766259 
L 510.18442 214.766259 
L 518.656223 213.863947 
L 518.656223 213.863947 
L 518.656223 213.864319 
L 518.656223 213.864319 
L 527.127522 212.78158 
L 527.127522 212.78158 
L 527.127522 212.781208 
L 527.127522 212.781208 
L 535.599078 211.481429 
L 535.599078 211.481429 
L 535.599078 211.481801 
L 535.599078 211.481801 
L 544.070465 209.921103 
L 544.070465 209.921103 
L 544.070465 209.921475 
L 544.070465 209.921475 
L 552.541846 208.048001 
L 552.541846 208.048001 
L 552.541846 208.048373 
L 552.541846 208.048373 
L 561.013232 205.7998 
L 561.013232 205.7998 
L 561.013232 205.799428 
L 561.013232 205.799428 
L 569.484663 203.100116 
L 569.484663 203.100116 
L 569.484663 203.100488 
L 569.484663 203.100488 
L 577.956165 199.859714 
L 577.956165 199.859714 
L 577.956165 199.860086 
L 577.956165 199.860086 
L 586.427514 195.97013 
L 586.427514 195.969758 
L 586.427514 195.969758 
L 586.427514 195.97013 
L 594.898991 191.300413 
L 594.898991 191.300413 
L 594.898991 191.300041 
L 594.898991 191.300041 
L 603.370414 185.694256 
L 603.370414 185.694256 
L 603.370414 185.694628 
L 603.370414 185.694628 
L 611.841888 178.965135 
L 611.841888 178.964763 
L 611.841888 178.964763 
L 611.841888 178.965135 
L 620.313295 170.886311 
L 620.313295 170.886683 
L 620.313295 170.886311 
L 620.313295 170.886683 
" clip-path="url(#p786d400eb4)" style="fill: none; stroke: #d62728; stroke-width: 1.5; stroke-linecap: square"/>
   </g>
   <g id="line2d_59">
    <path d="M 374.641705 218.361782 
L 374.641705 218.361782 
L 374.641705 218.361782 
L 374.641705 218.361782 
L 383.111017 218.171556 
L 383.111017 218.171556 
L 383.111017 218.171556 
L 383.111017 218.171556 
L 391.581611 217.943198 
L 391.581611 217.943198 
L 391.581611 217.943198 
L 391.581611 217.943198 
L 400.056916 217.669064 
L 400.056916 217.669064 
L 400.056916 217.669064 
L 400.056916 217.669064 
L 408.52864 217.339979 
L 408.52864 217.339979 
L 408.52864 217.339979 
L 408.52864 217.339979 
L 416.998125 216.944927 
L 416.998125 216.944927 
L 416.998125 216.944927 
L 416.998125 216.944927 
L 425.470579 216.470684 
L 425.470579 216.470684 
L 425.470579 216.470684 
L 425.470579 216.470684 
L 433.943026 215.901378 
L 433.943026 215.901378 
L 433.943026 215.901378 
L 433.943026 215.901378 
L 442.412369 215.217951 
L 442.412369 215.217951 
L 442.412369 215.217951 
L 442.412369 215.217951 
L 450.884501 214.397529 
L 450.884501 214.397529 
L 450.884501 214.397529 
L 450.884501 214.397529 
L 459.355671 213.412648 
L 459.355671 213.412648 
L 459.355671 213.412648 
L 459.355671 213.412648 
L 467.827929 212.230343 
L 467.827929 212.230343 
L 467.827929 212.230343 
L 467.827929 212.230343 
L 476.299185 210.811039 
L 476.299185 210.811039 
L 476.299185 210.811039 
L 476.299185 210.811039 
L 484.770469 209.107229 
L 484.770469 209.107229 
L 484.770469 209.107229 
L 484.770469 209.107229 
L 493.241431 207.061882 
L 493.241431 207.061882 
L 493.241431 207.061882 
L 493.241431 207.061882 
L 501.713008 204.606535 
L 501.713008 204.606535 
L 501.713008 204.606535 
L 501.713008 204.606535 
L 510.18442 201.659001 
L 510.18442 201.659001 
L 510.18442 201.659001 
L 510.18442 201.659001 
L 518.656223 198.120619 
L 518.656223 198.120619 
L 518.656223 198.120619 
L 518.656223 198.120619 
L 527.127522 193.872952 
L 527.127522 193.872952 
L 527.127522 193.872952 
L 527.127522 193.872952 
L 535.599078 188.773819 
L 535.599078 188.773819 
L 535.599078 188.773819 
L 535.599078 188.773819 
L 544.070465 182.652539 
L 544.070465 182.652539 
L 544.070465 182.652539 
L 544.070465 182.652539 
L 552.541846 175.304218 
L 552.541846 175.304218 
L 552.541846 175.304218 
L 552.541846 175.304218 
L 561.013232 166.48289 
L 561.013232 166.48289 
L 561.013232 166.48289 
L 561.013232 166.48289 
L 569.484663 155.893284 
L 569.484663 155.893284 
L 569.484663 155.893284 
L 569.484663 155.893284 
L 577.956165 143.180938 
L 577.956165 143.180938 
L 577.956165 143.180938 
L 577.956165 143.180938 
L 586.427514 127.920341 
L 586.427514 127.920341 
L 586.427514 127.920341 
L 586.427514 127.920341 
L 594.898991 109.600681 
L 594.898991 109.600681 
L 594.898991 109.600681 
L 594.898991 109.600681 
L 603.370414 87.608755 
L 603.370414 87.608755 
L 603.370414 87.608755 
L 603.370414 87.608755 
L 611.841888 61.208438 
L 611.841888 61.208438 
L 611.841888 61.208438 
L 611.841888 61.208438 
L 620.313295 29.516048 
L 620.313295 29.516048 
L 620.313295 29.516048 
L 620.313295 29.516048 
" clip-path="url(#p786d400eb4)" style="fill: none; stroke: #1f77b4; stroke-width: 1.5; stroke-linecap: square"/>
   </g>
   <g id="line2d_60">
    <path d="M 374.641705 218.411278 
L 374.641705 218.394159 
L 374.641705 218.395276 
L 374.641705 218.37704 
L 383.111017 218.232241 
L 383.111017 218.211393 
L 383.111017 218.212509 
L 383.111017 218.190544 
L 391.581611 218.017316 
L 391.581611 217.99199 
L 391.581611 217.993106 
L 391.581611 217.966663 
L 400.056916 217.697905 
L 400.056916 217.729723 
L 400.056916 217.759308 
L 400.056916 217.728606 
L 408.52864 217.44958 
L 408.52864 217.412426 
L 408.52864 217.413543 
L 408.52864 217.375272 
L 416.998125 217.077767 
L 416.998125 217.032866 
L 416.998125 217.033983 
L 416.998125 216.987966 
L 425.470579 216.631421 
L 425.470579 216.577222 
L 425.470579 216.578338 
L 425.470579 216.523023 
L 433.943026 215.964879 
L 433.943026 216.031358 
L 433.943026 216.095603 
L 433.943026 216.030241 
L 442.412369 215.452378 
L 442.412369 215.373616 
L 442.412369 215.374732 
L 442.412369 215.294853 
L 450.884501 214.680216 
L 450.884501 214.585366 
L 450.884501 214.586483 
L 450.884501 214.490517 
L 459.355671 213.524948 
L 459.355671 213.640225 
L 459.355671 213.639108 
L 459.355671 213.753269 
L 467.827929 212.640511 
L 467.827929 212.503168 
L 467.827929 212.504285 
L 467.827929 212.365825 
L 476.299185 211.304696 
L 476.299185 211.139524 
L 476.299185 211.14064 
L 476.299185 210.974351 
L 484.770469 209.503646 
L 484.770469 209.303949 
L 484.770469 209.70111 
L 484.770469 209.50253 
L 493.241431 207.538508 
L 493.241431 207.298707 
L 493.241431 207.776077 
L 493.241431 207.537392 
L 501.713008 205.465162 
L 501.713008 205.178333 
L 501.713008 205.179449 
L 501.713008 204.891503 
L 510.18442 202.691013 
L 510.18442 202.346389 
L 510.18442 202.347505 
L 510.18442 202.001764 
L 518.656223 199.360772 
L 518.656223 198.946767 
L 518.656223 198.947884 
L 518.656223 198.532763 
L 527.127522 194.368383 
L 527.127522 194.866791 
L 527.127522 194.865675 
L 527.127522 195.362967 
L 535.599078 190.563783 
L 535.599078 189.966508 
L 535.599078 189.967624 
L 535.599078 189.369233 
L 544.070465 184.802578 
L 544.070465 184.085278 
L 544.070465 184.086394 
L 544.070465 183.367978 
L 552.541846 177.886511 
L 552.541846 177.025127 
L 552.541846 177.026243 
L 552.541846 176.163742 
L 561.013232 167.515382 
L 561.013232 168.55085 
L 561.013232 169.584085 
L 561.013232 168.549733 
L 569.484663 159.617397 
L 569.484663 158.375406 
L 569.484663 158.376522 
L 569.484663 157.133414 
L 577.956165 147.652836 
L 577.956165 146.161584 
L 577.956165 146.1627 
L 577.956165 144.670331 
L 586.427514 129.70896 
L 586.427514 133.289921 
L 586.427514 131.499441 
L 586.427514 131.500557 
L 594.898991 111.748509 
L 594.898991 113.899315 
L 594.898991 113.898199 
L 594.898991 116.047888 
L 603.370414 95.349605 
L 603.370414 92.768701 
L 603.370414 92.769818 
L 603.370414 90.187798 
L 611.841888 64.305135 
L 611.841888 70.502248 
L 611.841888 67.403691 
L 611.841888 67.404808 
L 620.313295 36.95414 
L 620.313295 36.955257 
L 620.313295 40.674116 
L 620.313295 33.234164 
" clip-path="url(#p786d400eb4)" style="fill: none; stroke: #2ca02c; stroke-width: 1.5; stroke-linecap: square"/>
   </g>
   <g id="line2d_61">
    <path d="M 582.692853 228.542594 
L 582.692853 20.038594 
" clip-path="url(#p786d400eb4)" style="fill: none; stroke-dasharray: 4.44,1.92; stroke-dashoffset: 0; stroke: #ffa500; stroke-width: 1.2"/>
   </g>
   <g id="patch_9">
    <path d="M 362.358125 228.542594 
L 362.358125 20.038594 
" style="fill: none; stroke: #000000; stroke-width: 0.8; stroke-linejoin: miter; stroke-linecap: square"/>
   </g>
   <g id="patch_10">
    <path d="M 632.596875 228.542594 
L 632.596875 20.038594 
" style="fill: none; stroke: #000000; stroke-width: 0.8; stroke-linejoin: miter; stroke-linecap: square"/>
   </g>
   <g id="patch_11">
    <path d="M 362.358125 228.542594 
L 632.596875 228.542594 
" style="fill: none; stroke: #000000; stroke-width: 0.8; stroke-linejoin: miter; stroke-linecap: square"/>
   </g>
   <g id="patch_12">
    <path d="M 362.358125 20.038594 
L 632.596875 20.038594 
" style="fill: none; stroke: #000000; stroke-width: 0.8; stroke-linejoin: miter; stroke-linecap: square"/>
   </g>
   <g id="text_36">
    <!-- (b) Break-even curve at pt=0.3 -->
    <g transform="translate(418.66 14.038594) scale(0.09 -0.09)">
     <defs>
      <path id="DejaVuSans-Bold-62" d="M 2400 722 
Q 2759 722 2948 984 
Q 3138 1247 3138 1747 
Q 3138 2247 2948 2509 
Q 2759 2772 2400 2772 
Q 2041 2772 1848 2508 
Q 1656 2244 1656 1747 
Q 1656 1250 1848 986 
Q 2041 722 2400 722 
z
M 1656 2988 
Q 1888 3294 2169 3439 
Q 2450 3584 2816 3584 
Q 3463 3584 3878 3070 
Q 4294 2556 4294 1747 
Q 4294 938 3878 423 
Q 3463 -91 2816 -91 
Q 2450 -91 2169 54 
Q 1888 200 1656 506 
L 1656 0 
L 538 0 
L 538 4863 
L 1656 4863 
L 1656 2988 
z
" transform="scale(0.015625)"/>
      <path id="DejaVuSans-Bold-42" d="M 2456 2859 
Q 2741 2859 2887 2984 
Q 3034 3109 3034 3353 
Q 3034 3594 2887 3720 
Q 2741 3847 2456 3847 
L 1791 3847 
L 1791 2859 
L 2456 2859 
z
M 2497 819 
Q 2859 819 3042 972 
Q 3225 1125 3225 1434 
Q 3225 1738 3044 1889 
Q 2863 2041 2497 2041 
L 1791 2041 
L 1791 819 
L 2497 819 
z
M 3616 2497 
Q 4003 2384 4215 2081 
Q 4428 1778 4428 1338 
Q 4428 663 3972 331 
Q 3516 0 2584 0 
L 588 0 
L 588 4666 
L 2394 4666 
Q 3366 4666 3802 4372 
Q 4238 4078 4238 3431 
Q 4238 3091 4078 2852 
Q 3919 2613 3616 2497 
z
" transform="scale(0.015625)"/>
      <path id="DejaVuSans-Bold-6b" d="M 538 4863 
L 1656 4863 
L 1656 2216 
L 2944 3500 
L 4244 3500 
L 2534 1894 
L 4378 0 
L 3022 0 
L 1656 1459 
L 1656 0 
L 538 0 
L 538 4863 
z
" transform="scale(0.015625)"/>
      <path id="DejaVuSans-Bold-6e" d="M 4056 2131 
L 4056 0 
L 2931 0 
L 2931 347 
L 2931 1631 
Q 2931 2084 2911 2256 
Q 2891 2428 2841 2509 
Q 2775 2619 2662 2680 
Q 2550 2741 2406 2741 
Q 2056 2741 1856 2470 
Q 1656 2200 1656 1722 
L 1656 0 
L 538 0 
L 538 3500 
L 1656 3500 
L 1656 2988 
Q 1909 3294 2193 3439 
Q 2478 3584 2822 3584 
Q 3428 3584 3742 3212 
Q 4056 2841 4056 2131 
z
" transform="scale(0.015625)"/>
      <path id="DejaVuSans-Bold-3d" d="M 678 3084 
L 4684 3084 
L 4684 2350 
L 678 2350 
L 678 3084 
z
M 678 1663 
L 4684 1663 
L 4684 922 
L 678 922 
L 678 1663 
z
" transform="scale(0.015625)"/>
      <path id="DejaVuSans-Bold-30" d="M 2944 2338 
Q 2944 3213 2780 3570 
Q 2616 3928 2228 3928 
Q 1841 3928 1675 3570 
Q 1509 3213 1509 2338 
Q 1509 1453 1675 1090 
Q 1841 728 2228 728 
Q 2613 728 2778 1090 
Q 2944 1453 2944 2338 
z
M 4147 2328 
Q 4147 1169 3647 539 
Q 3147 -91 2228 -91 
Q 1306 -91 806 539 
Q 306 1169 306 2328 
Q 306 3491 806 4120 
Q 1306 4750 2228 4750 
Q 3147 4750 3647 4120 
Q 4147 3491 4147 2328 
z
" transform="scale(0.015625)"/>
      <path id="DejaVuSans-Bold-2e" d="M 653 1209 
L 1778 1209 
L 1778 0 
L 653 0 
L 653 1209 
z
" transform="scale(0.015625)"/>
      <path id="DejaVuSans-Bold-33" d="M 2981 2516 
Q 3453 2394 3698 2092 
Q 3944 1791 3944 1325 
Q 3944 631 3412 270 
Q 2881 -91 1863 -91 
Q 1503 -91 1142 -33 
Q 781 25 428 141 
L 428 1069 
Q 766 900 1098 814 
Q 1431 728 1753 728 
Q 2231 728 2486 893 
Q 2741 1059 2741 1369 
Q 2741 1688 2480 1852 
Q 2219 2016 1709 2016 
L 1228 2016 
L 1228 2791 
L 1734 2791 
Q 2188 2791 2409 2933 
Q 2631 3075 2631 3366 
Q 2631 3634 2415 3781 
Q 2200 3928 1806 3928 
Q 1516 3928 1219 3862 
Q 922 3797 628 3669 
L 628 4550 
Q 984 4650 1334 4700 
Q 1684 4750 2022 4750 
Q 2931 4750 3382 4451 
Q 3834 4153 3834 3553 
Q 3834 3144 3618 2883 
Q 3403 2622 2981 2516 
z
" transform="scale(0.015625)"/>
     </defs>
     <use xlink:href="#DejaVuSans-Bold-28"/>
     <use xlink:href="#DejaVuSans-Bold-62" x="45.703125"/>
     <use xlink:href="#DejaVuSans-Bold-29" x="117.285156"/>
     <use xlink:href="#DejaVuSans-Bold-20" x="162.988281"/>
     <use xlink:href="#DejaVuSans-Bold-42" x="197.802734"/>
     <use xlink:href="#DejaVuSans-Bold-72" x="274.023438"/>
     <use xlink:href="#DejaVuSans-Bold-65" x="323.339844"/>
     <use xlink:href="#DejaVuSans-Bold-61" x="391.162109"/>
     <use xlink:href="#DejaVuSans-Bold-6b" x="458.642578"/>
     <use xlink:href="#DejaVuSans-Bold-2d" x="525.146484"/>
     <use xlink:href="#DejaVuSans-Bold-65" x="566.650391"/>
     <use xlink:href="#DejaVuSans-Bold-76" x="634.472656"/>
     <use xlink:href="#DejaVuSans-Bold-65" x="699.658203"/>
     <use xlink:href="#DejaVuSans-Bold-6e" x="767.480469"/>
     <use xlink:href="#DejaVuSans-Bold-20" x="838.671875"/>
     <use xlink:href="#DejaVuSans-Bold-63" x="873.486328"/>
     <use xlink:href="#DejaVuSans-Bold-75" x="932.763672"/>
     <use xlink:href="#DejaVuSans-Bold-72" x="1003.955078"/>
     <use xlink:href="#DejaVuSans-Bold-76" x="1053.271484"/>
     <use xlink:href="#DejaVuSans-Bold-65" x="1118.457031"/>
     <use xlink:href="#DejaVuSans-Bold-20" x="1186.279297"/>
     <use xlink:href="#DejaVuSans-Bold-61" x="1221.09375"/>
     <use xlink:href="#DejaVuSans-Bold-74" x="1288.574219"/>
     <use xlink:href="#DejaVuSans-Bold-20" x="1336.376953"/>
     <use xlink:href="#DejaVuSans-Bold-70" x="1371.191406"/>
     <use xlink:href="#DejaVuSans-Bold-74" x="1442.773438"/>
     <use xlink:href="#DejaVuSans-Bold-3d" x="1490.576172"/>
     <use xlink:href="#DejaVuSans-Bold-30" x="1574.365234"/>
     <use xlink:href="#DejaVuSans-Bold-2e" x="1643.945312"/>
     <use xlink:href="#DejaVuSans-Bold-33" x="1681.933594"/>
    </g>
   </g>
   <g id="legend_2">
    <g id="patch_13">
     <path d="M 367.258125 84.8505 
L 459.1725 84.8505 
Q 460.5725 84.8505 460.5725 83.4505 
L 460.5725 24.938594 
Q 460.5725 23.538594 459.1725 23.538594 
L 367.258125 23.538594 
Q 365.858125 23.538594 365.858125 24.938594 
L 365.858125 83.4505 
Q 365.858125 84.8505 367.258125 84.8505 
z
" style="fill: #ffffff; opacity: 0.8; stroke: #cccccc; stroke-linejoin: miter"/>
    </g>
    <g id="line2d_62">
     <path d="M 368.658125 29.2075 
L 375.658125 29.2075 
L 382.658125 29.2075 
" style="fill: none; stroke: #636363; stroke-width: 1.5; stroke-linecap: square"/>
    </g>
    <g id="text_37">
     <!-- EfficientNet-B3 -->
     <g transform="translate(388.258125 31.6575) scale(0.07 -0.07)">
      <use xlink:href="#DejaVuSans-45"/>
      <use xlink:href="#DejaVuSans-66" x="63.183594"/>
      <use xlink:href="#DejaVuSans-66" x="98.388672"/>
      <use xlink:href="#DejaVuSans-69" x="133.59375"/>
      <use xlink:href="#DejaVuSans-63" x="161.376953"/>
      <use xlink:href="#DejaVuSans-69" x="216.357422"/>
      <use xlink:href="#DejaVuSans-65" x="244.140625"/>
      <use xlink:href="#DejaVuSans-6e" x="305.664062"/>
      <use xlink:href="#DejaVuSans-74" x="369.042969"/>
      <use xlink:href="#DejaVuSans-4e" x="408.251953"/>
      <use xlink:href="#DejaVuSans-65" x="483.056641"/>
      <use xlink:href="#DejaVuSans-74" x="544.580078"/>
      <use xlink:href="#DejaVuSans-2d" x="583.789062"/>
      <use xlink:href="#DejaVuSans-42" x="616.248047"/>
      <use xlink:href="#DejaVuSans-33" x="684.851562"/>
     </g>
    </g>
    <g id="line2d_63">
     <path d="M 368.658125 39.482187 
L 375.658125 39.482187 
L 382.658125 39.482187 
" style="fill: none; stroke: #d62728; stroke-width: 1.5; stroke-linecap: square"/>
    </g>
    <g id="text_38">
     <!-- Q-VIB+TokFT -->
     <g transform="translate(388.258125 41.932187) scale(0.07 -0.07)">
      <use xlink:href="#DejaVuSans-51"/>
      <use xlink:href="#DejaVuSans-2d" x="81.460938"/>
      <use xlink:href="#DejaVuSans-56" x="111.669922"/>
      <use xlink:href="#DejaVuSans-49" x="180.078125"/>
      <use xlink:href="#DejaVuSans-42" x="209.570312"/>
      <use xlink:href="#DejaVuSans-2b" x="278.173828"/>
      <use xlink:href="#DejaVuSans-54" x="361.962891"/>
      <use xlink:href="#DejaVuSans-6f" x="406.046875"/>
      <use xlink:href="#DejaVuSans-6b" x="467.228516"/>
      <use xlink:href="#DejaVuSans-46" x="525.138672"/>
      <use xlink:href="#DejaVuSans-54" x="580.908203"/>
     </g>
    </g>
    <g id="line2d_64">
     <path d="M 368.658125 49.756875 
L 375.658125 49.756875 
L 382.658125 49.756875 
" style="fill: none; stroke: #1f77b4; stroke-width: 1.5; stroke-linecap: square"/>
    </g>
    <g id="text_39">
     <!-- Std VIB -->
     <g transform="translate(388.258125 52.206875) scale(0.07 -0.07)">
      <use xlink:href="#DejaVuSans-53"/>
      <use xlink:href="#DejaVuSans-74" x="63.476562"/>
      <use xlink:href="#DejaVuSans-64" x="102.685547"/>
      <use xlink:href="#DejaVuSans-20" x="166.162109"/>
      <use xlink:href="#DejaVuSans-56" x="197.949219"/>
      <use xlink:href="#DejaVuSans-49" x="266.357422"/>
      <use xlink:href="#DejaVuSans-42" x="295.849609"/>
     </g>
    </g>
    <g id="line2d_65">
     <path d="M 368.658125 60.031562 
L 375.658125 60.031562 
L 382.658125 60.031562 
" style="fill: none; stroke: #2ca02c; stroke-width: 1.5; stroke-linecap: square"/>
    </g>
    <g id="text_40">
     <!-- Std VIB + QCTS -->
     <g transform="translate(388.258125 62.481562) scale(0.07 -0.07)">
      <use xlink:href="#DejaVuSans-53"/>
      <use xlink:href="#DejaVuSans-74" x="63.476562"/>
      <use xlink:href="#DejaVuSans-64" x="102.685547"/>
      <use xlink:href="#DejaVuSans-20" x="166.162109"/>
      <use xlink:href="#DejaVuSans-56" x="197.949219"/>
      <use xlink:href="#DejaVuSans-49" x="266.357422"/>
      <use xlink:href="#DejaVuSans-42" x="295.849609"/>
      <use xlink:href="#DejaVuSans-20" x="364.453125"/>
      <use xlink:href="#DejaVuSans-2b" x="396.240234"/>
      <use xlink:href="#DejaVuSans-20" x="480.029297"/>
      <use xlink:href="#DejaVuSans-51" x="511.816406"/>
      <use xlink:href="#DejaVuSans-43" x="590.527344"/>
      <use xlink:href="#DejaVuSans-54" x="660.351562"/>
      <use xlink:href="#DejaVuSans-53" x="721.435547"/>
     </g>
    </g>
    <g id="line2d_66">
     <path d="M 368.658125 74.953375 
L 375.658125 74.953375 
L 382.658125 74.953375 
" style="fill: none; stroke-dasharray: 4.44,1.92; stroke-dashoffset: 0; stroke: #ffa500; stroke-width: 1.2"/>
    </g>
    <g id="text_41">
     <!-- Anchor r=4443 -->
     <g transform="translate(388.258125 72.75625) scale(0.07 -0.07)">
      <defs>
       <path id="DejaVuSans-41" d="M 2188 4044 
L 1331 1722 
L 3047 1722 
L 2188 4044 
z
M 1831 4666 
L 2547 4666 
L 4325 0 
L 3669 0 
L 3244 1197 
L 1141 1197 
L 716 0 
L 50 0 
L 1831 4666 
z
" transform="scale(0.015625)"/>
      </defs>
      <use xlink:href="#DejaVuSans-41"/>
      <use xlink:href="#DejaVuSans-6e" x="68.408203"/>
      <use xlink:href="#DejaVuSans-63" x="131.787109"/>
      <use xlink:href="#DejaVuSans-68" x="186.767578"/>
      <use xlink:href="#DejaVuSans-6f" x="250.146484"/>
      <use xlink:href="#DejaVuSans-72" x="311.328125"/>
      <use xlink:href="#DejaVuSans-20" x="352.441406"/>
      <use xlink:href="#DejaVuSans-72" x="384.228516"/>
      <use xlink:href="#DejaVuSans-3d" x="425.341797"/>
      <use xlink:href="#DejaVuSans-34" x="509.130859"/>
      <use xlink:href="#DejaVuSans-34" x="572.753906"/>
      <use xlink:href="#DejaVuSans-34" x="636.376953"/>
      <use xlink:href="#DejaVuSans-33" x="700"/>
     </g>
     <!-- (mistry2026/li2023) -->
     <g transform="translate(388.258125 80.594719) scale(0.07 -0.07)">
      <use xlink:href="#DejaVuSans-28"/>
      <use xlink:href="#DejaVuSans-6d" x="39.013672"/>
      <use xlink:href="#DejaVuSans-69" x="136.425781"/>
      <use xlink:href="#DejaVuSans-73" x="164.208984"/>
      <use xlink:href="#DejaVuSans-74" x="216.308594"/>
      <use xlink:href="#DejaVuSans-72" x="255.517578"/>
      <use xlink:href="#DejaVuSans-79" x="296.630859"/>
      <use xlink:href="#DejaVuSans-32" x="355.810547"/>
      <use xlink:href="#DejaVuSans-30" x="419.433594"/>
      <use xlink:href="#DejaVuSans-32" x="483.056641"/>
      <use xlink:href="#DejaVuSans-36" x="546.679688"/>
      <use xlink:href="#DejaVuSans-2f" x="610.302734"/>
      <use xlink:href="#DejaVuSans-6c" x="643.994141"/>
      <use xlink:href="#DejaVuSans-69" x="671.777344"/>
      <use xlink:href="#DejaVuSans-32" x="699.560547"/>
      <use xlink:href="#DejaVuSans-30" x="763.183594"/>
      <use xlink:href="#DejaVuSans-32" x="826.806641"/>
      <use xlink:href="#DejaVuSans-33" x="890.429688"/>
      <use xlink:href="#DejaVuSans-29" x="954.052734"/>
     </g>
    </g>
   </g>
  </g>
 </g>
 <defs>
  <clipPath id="pae93c56a43">
   <rect x="40.439375" y="20.038594" width="270.23875" height="208.504"/>
  </clipPath>
  <clipPath id="p786d400eb4">
   <rect x="362.358125" y="20.038594" width="270.23875" height="208.504"/>
  </clipPath>
 </defs>
</svg>
