<?xml version="1.0" encoding="UTF-8"?>
<svg xmlns="http://www.w3.org/2000/svg" viewBox="0 0 1920 1080" width="1920" height="1080" font-family="Inter, Helvetica, Calibri, sans-serif">
  <!-- ===================== DEFS ===================== -->
  <defs>
    <!-- Arrowheads -->
    <marker id="ah-grey" viewBox="0 0 10 10" refX="9" refY="5" markerWidth="7" markerHeight="7" orient="auto-start-reverse">
      <path d="M 0 0 L 10 5 L 0 10 z" fill="#4D4D4D"/>
    </marker>
    <marker id="ah-orange" viewBox="0 0 10 10" refX="9" refY="5" markerWidth="7" markerHeight="7" orient="auto-start-reverse">
      <path d="M 0 0 L 10 5 L 0 10 z" fill="#E69F00"/>
    </marker>

    <!-- Snowflake glyph (frozen) -->
    <symbol id="snowflake" viewBox="-12 -12 24 24" overflow="visible">
      <g stroke="#666666" stroke-width="1.4" stroke-linecap="round" fill="none">
        <line x1="0" y1="-9" x2="0" y2="9"/>
        <line x1="-9" y1="0" x2="9" y2="0"/>
        <line x1="-6.4" y1="-6.4" x2="6.4" y2="6.4"/>
        <line x1="-6.4" y1="6.4" x2="6.4" y2="-6.4"/>
        <line x1="-2" y1="-9" x2="2" y2="-7"/>
        <line x1="2" y1="-9" x2="-2" y2="-7"/>
        <line x1="-2" y1="9" x2="2" y2="7"/>
        <line x1="2" y1="9" x2="-2" y2="7"/>
        <line x1="-9" y1="-2" x2="-7" y2="2"/>
        <line x1="-9" y1="2" x2="-7" y2="-2"/>
        <line x1="9" y1="-2" x2="7" y2="2"/>
        <line x1="9" y1="2" x2="7" y2="-2"/>
      </g>
    </symbol>

    <!-- Flame glyph (fitted) -->
    <symbol id="flame" viewBox="-10 -12 20 24" overflow="visible">
      <path d="M 0 -10 C 5 -4 7 0 5 6 C 4 9 -4 9 -5 6 C -7 0 -5 -4 0 -10 z" fill="#E69F00" stroke="#666666" stroke-width="0.6"/>
      <path d="M 0 -3 C 2 0 3 3 1 6 C 0 7 -2 6 -2 4 C -2 1 -1 -1 0 -3 z" fill="#FFFFFF"/>
    </symbol>

    <!-- Warning triangle -->
    <symbol id="warn" viewBox="-30 -28 60 56" overflow="visible">
      <path d="M 0 -22 L 24 18 L -24 18 z" fill="#E69F00" stroke="#B36F00" stroke-width="1.5" stroke-linejoin="round"/>
      <rect x="-2.6" y="-10" width="5.2" height="16" rx="1" fill="#FFFFFF"/>
      <circle cx="0" cy="11" r="2.5" fill="#FFFFFF"/>
    </symbol>

    <!-- Check icon -->
    <symbol id="check" viewBox="-26 -26 52 52" overflow="visible">
      <circle cx="0" cy="0" r="22" fill="#009E73" stroke="#006B4D" stroke-width="1.5"/>
      <path d="M -10 1 L -3 9 L 11 -8" stroke="#FFFFFF" stroke-width="4.5" fill="none" stroke-linecap="round" stroke-linejoin="round"/>
    </symbol>

    <!-- Thermometer icon -->
    <symbol id="thermo" viewBox="-8 -16 16 32" overflow="visible">
      <rect x="-2" y="-14" width="4" height="22" rx="2" fill="#FFFFFF" stroke="#333333" stroke-width="1.2"/>
      <rect x="-1.4" y="-10" width="2.8" height="14" fill="#E69F00"/>
      <circle cx="0" cy="10" r="5" fill="#E69F00" stroke="#333333" stroke-width="1.2"/>
    </symbol>

    <!-- Gear icon -->
    <symbol id="gear" viewBox="-10 -10 20 20" overflow="visible">
      <g fill="#333333">
        <circle cx="0" cy="0" r="6"/>
        <rect x="-1.4" y="-9.5" width="2.8" height="3"/>
        <rect x="-1.4" y="6.5" width="2.8" height="3"/>
        <rect x="-9.5" y="-1.4" width="3" height="2.8"/>
        <rect x="6.5" y="-1.4" width="3" height="2.8"/>
      </g>
      <circle cx="0" cy="0" r="2.5" fill="#FFFFFF"/>
    </symbol>

    <!-- Camera icon -->
    <symbol id="cam" viewBox="-12 -10 24 20" overflow="visible">
      <rect x="-10" y="-6" width="20" height="14" rx="2" fill="none" stroke="#333333" stroke-width="1.4"/>
      <rect x="-5" y="-9" width="6" height="3" fill="none" stroke="#333333" stroke-width="1.4"/>
      <circle cx="0" cy="1" r="4" fill="none" stroke="#333333" stroke-width="1.4"/>
      <circle cx="0" cy="1" r="1.5" fill="#333333"/>
    </symbol>

    <!-- Dermoscopy lesion -->
    <symbol id="lesion" viewBox="-40 -40 80 80" overflow="visible">
      <circle cx="0" cy="0" r="36" fill="#F4DDD0" stroke="#333333" stroke-width="1.4"/>
      <ellipse cx="-3" cy="2" rx="20" ry="16" fill="#8B5A3C" opacity="0.85"/>
      <ellipse cx="6" cy="-5" rx="6" ry="4" fill="#5C3A26" opacity="0.7"/>
      <ellipse cx="-10" cy="10" rx="5" ry="3" fill="#5C3A26" opacity="0.6"/>
    </symbol>

    <!-- IQA mini glyphs -->
    <symbol id="g-sharp" viewBox="0 0 24 16" overflow="visible">
      <g stroke="#333333" stroke-width="0.8" fill="none">
        <line x1="2" y1="2" x2="22" y2="2"/><line x1="2" y1="6" x2="22" y2="6"/>
        <line x1="2" y1="10" x2="22" y2="10"/><line x1="2" y1="14" x2="22" y2="14"/>
        <line x1="6" y1="0" x2="6" y2="16"/><line x1="12" y1="0" x2="12" y2="16"/>
        <line x1="18" y1="0" x2="18" y2="16"/>
        <line x1="2" y1="2" x2="22" y2="14" stroke-width="1.1"/>
      </g>
    </symbol>
    <symbol id="g-bright" viewBox="0 0 24 16" overflow="visible">
      <g fill="#333333">
        <rect x="2" y="11" width="3" height="4"/><rect x="7" y="8" width="3" height="7"/>
        <rect x="12" y="4" width="3" height="11"/><rect x="17" y="6" width="3" height="9"/>
      </g>
      <line x1="1" y1="15" x2="23" y2="15" stroke="#333333" stroke-width="0.8"/>
    </symbol>
    <symbol id="g-compl" viewBox="0 0 24 16" overflow="visible">
      <rect x="3" y="2" width="18" height="12" fill="none" stroke="#333333" stroke-width="1.1"/>
      <line x1="3" y1="2" x2="8" y2="6" stroke="#333333" stroke-width="0.7"/>
      <line x1="21" y1="2" x2="16" y2="6" stroke="#333333" stroke-width="0.7"/>
      <line x1="3" y1="14" x2="8" y2="10" stroke="#333333" stroke-width="0.7"/>
      <line x1="21" y1="14" x2="16" y2="10" stroke="#333333" stroke-width="0.7"/>
    </symbol>
    <symbol id="g-colour" viewBox="0 0 24 16" overflow="visible">
      <rect x="2" y="3" width="20" height="3" fill="#333333" opacity="0.85"/>
      <rect x="2" y="7" width="14" height="3" fill="#333333" opacity="0.55"/>
      <rect x="2" y="11" width="17" height="3" fill="#333333" opacity="0.30"/>
    </symbol>
    <symbol id="g-contrast" viewBox="0 0 24 16" overflow="visible">
      <path d="M 2 14 C 6 14 8 12 12 8 C 16 4 18 2 22 2" stroke="#333333" stroke-width="1.2" fill="none"/>
      <line x1="2" y1="14" x2="22" y2="14" stroke="#333333" stroke-width="0.5" opacity="0.5"/>
      <line x1="2" y1="14" x2="2" y2="2" stroke="#333333" stroke-width="0.5" opacity="0.5"/>
    </symbol>

    <!-- Backbone silhouettes -->
    <symbol id="bb-conv" viewBox="0 0 72 56" overflow="visible">
      <g fill="none" stroke="#333333" stroke-width="1.2">
        <rect x="4"  y="14" width="14" height="28" rx="1"/>
        <rect x="22" y="10" width="14" height="36" rx="1"/>
        <rect x="40" y="6"  width="14" height="44" rx="1"/>
        <rect x="58" y="14" width="10" height="28" rx="1"/>
      </g>
    </symbol>
    <symbol id="bb-vit" viewBox="0 0 72 56" overflow="visible">
      <g fill="none" stroke="#333333" stroke-width="1.0">
        <rect x="6" y="6" width="10" height="10"/><rect x="18" y="6" width="10" height="10"/>
        <rect x="30" y="6" width="10" height="10"/><rect x="42" y="6" width="10" height="10"/>
        <rect x="54" y="6" width="10" height="10"/>
        <rect x="6" y="18" width="10" height="10"/><rect x="18" y="18" width="10" height="10"/>
        <rect x="30" y="18" width="10" height="10"/><rect x="42" y="18" width="10" height="10"/>
        <rect x="54" y="18" width="10" height="10"/>
        <rect x="6" y="30" width="10" height="10"/><rect x="18" y="30" width="10" height="10"/>
        <rect x="30" y="30" width="10" height="10"/><rect x="42" y="30" width="10" height="10"/>
        <rect x="54" y="30" width="10" height="10"/>
      </g>
      <circle cx="36" cy="48" r="4" fill="none" stroke="#333333" stroke-width="1.0"/>
      <line x1="20" y1="48" x2="32" y2="48" stroke="#333333" stroke-width="0.7"/>
      <line x1="40" y1="48" x2="52" y2="48" stroke="#333333" stroke-width="0.7"/>
    </symbol>
    <symbol id="bb-hybrid" viewBox="0 0 72 56" overflow="visible">
      <g fill="none" stroke="#333333" stroke-width="1.1">
        <rect x="4" y="14" width="14" height="28" rx="1"/>
        <rect x="22" y="10" width="14" height="36" rx="1"/>
      </g>
      <g fill="none" stroke="#666666" stroke-width="0.8" opacity="0.85">
        <rect x="40" y="10" width="9" height="9"/><rect x="51" y="10" width="9" height="9"/>
        <rect x="40" y="22" width="9" height="9"/><rect x="51" y="22" width="9" height="9"/>
        <rect x="40" y="34" width="9" height="9"/><rect x="51" y="34" width="9" height="9"/>
        <line x1="40" y1="48" x2="60" y2="48" stroke-dasharray="2,1.5"/>
      </g>
    </symbol>

    <!-- Reliability mini-charts -->
    <symbol id="reli-bad" viewBox="0 0 60 36" overflow="visible">
      <rect x="0.5" y="0.5" width="59" height="35" fill="#FFFFFF" stroke="#CCCCCC" stroke-width="0.6"/>
      <line x1="4" y1="32" x2="56" y2="4" stroke="#333333" stroke-width="0.6" stroke-dasharray="2,2"/>
      <path d="M 4 24 C 14 28 22 14 30 10 C 38 14 46 30 56 18" stroke="#333333" stroke-width="1.4" fill="none"/>
    </symbol>
    <symbol id="reli-good" viewBox="0 0 60 36" overflow="visible">
      <rect x="0.5" y="0.5" width="59" height="35" fill="#FFFFFF" stroke="#CCCCCC" stroke-width="0.6"/>
      <line x1="4" y1="32" x2="56" y2="4" stroke="#333333" stroke-width="0.6" stroke-dasharray="2,2"/>
      <path d="M 4 32 C 16 26 30 18 56 4" stroke="#009E73" stroke-width="1.6" fill="none"/>
    </symbol>
  </defs>

  <!-- ===================== BACKGROUND ===================== -->
  <rect x="0" y="0" width="1920" height="1080" fill="#FFFFFF"/>

  <!-- ===================== TITLE STRIP ===================== -->
  <text x="685" y="50" text-anchor="middle" font-size="22" font-weight="700" fill="#0072B2"
        letter-spacing="2.2" style="font-variant: small-caps;">TRAINING — post-hoc calibration on ITB validation split</text>
  <text x="1620" y="50" text-anchor="middle" font-size="22" font-weight="700" fill="#0072B2"
        letter-spacing="2.2" style="font-variant: small-caps;">INFERENCE — single image</text>
  <line x1="30" y1="68" x2="1890" y2="68" stroke="#CCCCCC" stroke-width="1"/>
  <line x1="1325" y1="80" x2="1325" y2="900" stroke="#CCCCCC" stroke-width="1"/>

  <!-- ===================== TOP BAND : IQA shared ===================== -->
  <rect x="40" y="85" width="1275" height="195" rx="6" fill="#F7F7F7" stroke="none"/>
  <text x="55" y="108" font-size="13" fill="#666666" font-style="italic">Stage 1 — 5-head IQA (frozen, shared between training &amp; inference)</text>

  <use href="#lesion" x="105" y="180" width="64" height="64"/>
  <text x="105" y="240" text-anchor="middle" font-size="12" fill="#333333" font-style="italic">x  dermoscopy input</text>

  <line x1="145" y1="180" x2="220" y2="180" stroke="#4D4D4D" stroke-width="2" marker-end="url(#ah-grey)"/>

  <!-- 5 IQA heads -->
  <g>
    <rect x="230" y="118" width="200" height="22" rx="3" fill="#FFFFFF" stroke="#0072B2" stroke-width="1.2"/>
    <use href="#g-sharp" x="238" y="123" width="28" height="14"/>
    <text x="272" y="134" font-size="11" fill="#333333" letter-spacing="0.5" style="font-variant: small-caps;">Sharpness</text>

    <rect x="230" y="144" width="200" height="22" rx="3" fill="#FFFFFF" stroke="#0072B2" stroke-width="1.2"/>
    <use href="#g-bright" x="238" y="149" width="28" height="14"/>
    <text x="272" y="160" font-size="11" fill="#333333" letter-spacing="0.5" style="font-variant: small-caps;">Brightness</text>

    <rect x="230" y="170" width="200" height="22" rx="3" fill="#FFFFFF" stroke="#0072B2" stroke-width="1.2"/>
    <use href="#g-compl" x="238" y="175" width="28" height="14"/>
    <text x="272" y="186" font-size="11" fill="#333333" letter-spacing="0.5" style="font-variant: small-caps;">Completeness</text>

    <rect x="230" y="196" width="200" height="22" rx="3" fill="#FFFFFF" stroke="#0072B2" stroke-width="1.2"/>
    <use href="#g-colour" x="238" y="201" width="28" height="14"/>
    <text x="272" y="212" font-size="11" fill="#333333" letter-spacing="0.5" style="font-variant: small-caps;">Colour temp.</text>

    <rect x="230" y="222" width="200" height="22" rx="3" fill="#FFFFFF" stroke="#0072B2" stroke-width="1.2"/>
    <use href="#g-contrast" x="238" y="227" width="28" height="14"/>
    <text x="272" y="238" font-size="11" fill="#333333" letter-spacing="0.5" style="font-variant: small-caps;">Contrast</text>
  </g>

  <!-- Convergence to mean -->
  <g stroke="#4D4D4D" stroke-width="1" fill="none" opacity="0.85">
    <line x1="430" y1="129" x2="490" y2="181"/>
    <line x1="430" y1="155" x2="490" y2="181"/>
    <line x1="430" y1="181" x2="490" y2="181"/>
    <line x1="430" y1="207" x2="490" y2="181"/>
    <line x1="430" y1="233" x2="490" y2="181"/>
  </g>

  <rect x="490" y="166" width="70" height="32" rx="16" fill="#FFFFFF" stroke="#CCCCCC" stroke-width="1.2"/>
  <text x="525" y="187" text-anchor="middle" font-size="13" fill="#333333">mean</text>

  <line x1="560" y1="182" x2="615" y2="182" stroke="#4D4D4D" stroke-width="2" marker-end="url(#ah-grey)"/>

  <rect x="620" y="158" width="78" height="48" rx="24" fill="#FFFFFF" stroke="#0072B2" stroke-width="2.8"/>
  <text x="659" y="194" text-anchor="middle" font-size="26" fill="#0072B2" font-weight="700">q</text>
  <line x1="651" y1="170" x2="669" y2="170" stroke="#0072B2" stroke-width="2.4" stroke-linecap="round"/>

  <text x="330" y="265" text-anchor="middle" font-size="11" fill="#666666" font-style="italic">5 quality heads averaged into a single per-input quality scalar</text>

  <!-- ===================== q-bar SHARED ARCH ===================== -->
  <path d="M 698 178 C 850 60 1000 60 1110 470"
        stroke="#E69F00" stroke-width="2.4" fill="none"
        stroke-dasharray="3,5" marker-end="url(#ah-orange)" stroke-linecap="round"/>
  <text x="920" y="92" text-anchor="middle" font-size="13" fill="#666666" font-style="italic">q-bar shared</text>

  <!-- ===================== PATH A : Standard TS ===================== -->
  <rect x="40" y="300" width="1275" height="200" rx="8" fill="#FFFFFF" stroke="#E69F00" stroke-width="2.5" stroke-dasharray="9,5"/>
  <text x="180" y="320" font-size="15" font-weight="700" fill="#E69F00"
        letter-spacing="2.2" style="font-variant: small-caps;">Path A — Standard TS</text>

  <use href="#lesion" x="135" y="400" width="48" height="48"/>
  <text x="135" y="465" text-anchor="middle" font-size="13" fill="#333333" font-style="italic">x</text>

  <line x1="175" y1="400" x2="280" y2="400" stroke="#4D4D4D" stroke-width="2" marker-end="url(#ah-grey)"/>

  <rect x="290" y="345" width="180" height="115" rx="5" fill="#FFFFFF" stroke="#4D4D4D" stroke-width="1.4"/>
  <text x="380" y="365" text-anchor="middle" font-size="14" font-weight="700" fill="#333333">Backbone f&#x03B8;</text>
  <use href="#bb-conv" x="320" y="378" width="120" height="72"/>
  <use href="#snowflake" x="460" y="361" width="16" height="16"/>

  <line x1="470" y1="400" x2="660" y2="400" stroke="#4D4D4D" stroke-width="2" marker-end="url(#ah-grey)"/>
  <text x="565" y="392" text-anchor="middle" font-size="14" fill="#333333" font-style="italic">z</text>

  <rect x="670" y="357" width="200" height="92" rx="5" fill="#FFFFFF" stroke="#E69F00" stroke-width="1.4"/>
  <text x="770" y="378" text-anchor="middle" font-size="14" font-weight="700" fill="#333333">Standard TS</text>
  <use href="#thermo" x="710" y="412" width="22" height="44"/>
  <text x="765" y="418" font-size="11" fill="#666666" font-style="italic">single global T</text>
  <text x="765" y="434" font-size="11" fill="#666666" font-style="italic">fitted on D-val (NLL)</text>
  <use href="#flame" x="852" y="370" width="14" height="18"/>

  <line x1="870" y1="403" x2="1050" y2="403" stroke="#4D4D4D" stroke-width="2" marker-end="url(#ah-grey)"/>
  <text x="960" y="395" text-anchor="middle" font-size="14" fill="#333333" font-style="italic">p</text>

  <use href="#warn" x="1110" y="400" width="56" height="56"/>
  <text x="1110" y="455" text-anchor="middle" font-size="13" font-weight="700" fill="#E69F00">&#x03C1; sign-flip</text>
  <text x="1110" y="472" text-anchor="middle" font-size="11" fill="#666666" font-style="italic">on weakly quality-aware backbones</text>

  <use href="#reli-bad" x="1190" y="372" width="72" height="44"/>
  <text x="1226" y="430" text-anchor="middle" font-size="10" fill="#666666" font-style="italic">reliability</text>

  <!-- ===================== PATH B : QCTS ===================== -->
  <rect x="40" y="520" width="1275" height="220" rx="8" fill="#FFFFFF" stroke="#009E73" stroke-width="2.8"/>
  <text x="180" y="540" font-size="15" font-weight="700" fill="#009E73"
        letter-spacing="2.2" style="font-variant: small-caps;">Path B — QCTS (ours)</text>

  <use href="#lesion" x="135" y="630" width="48" height="48"/>
  <text x="135" y="695" text-anchor="middle" font-size="13" fill="#333333" font-style="italic">x</text>

  <line x1="175" y1="630" x2="280" y2="630" stroke="#4D4D4D" stroke-width="2" marker-end="url(#ah-grey)"/>

  <rect x="290" y="572" width="180" height="115" rx="5" fill="#FFFFFF" stroke="#4D4D4D" stroke-width="1.4"/>
  <text x="380" y="593" text-anchor="middle" font-size="14" font-weight="700" fill="#333333">Backbone f&#x03B8;</text>
  <use href="#bb-conv" x="320" y="606" width="120" height="72"/>
  <use href="#snowflake" x="460" y="588" width="16" height="16"/>
  <text x="380" y="702" text-anchor="middle" font-size="10" fill="#666666" font-style="italic">SAME backbone, SAME logits</text>

  <line x1="470" y1="630" x2="660" y2="630" stroke="#4D4D4D" stroke-width="2" marker-end="url(#ah-grey)"/>
  <text x="565" y="622" text-anchor="middle" font-size="14" fill="#333333" font-style="italic">z</text>

  <rect x="670" y="565" width="320" height="130" rx="5" fill="#FFFFFF" stroke="#009E73" stroke-width="1.8"/>
  <text x="830" y="588" text-anchor="middle" font-size="16" font-weight="700" fill="#333333">QCTS</text>
  <use href="#thermo" x="700" y="617" width="22" height="44"/>
  <use href="#gear" x="738" y="635" width="20" height="20"/>
  <use href="#flame" x="970" y="578" width="14" height="18"/>

  <rect x="760" y="615" width="220" height="60" rx="3" fill="#F7F7F7" stroke="#CCCCCC" stroke-width="0.8"/>
  <text x="870" y="640" text-anchor="middle" font-size="14" fill="#333333">T(q-bar) = softplus( T_0  +  &#x03B1; &#x00B7; (1 &#x2212; q-bar) )</text>
  <text x="870" y="662" text-anchor="middle" font-size="10" fill="#666666" font-style="italic">two params; from B1 monotonicity / B2 positivity / B3 smoothness</text>

  <line x1="990" y1="630" x2="1080" y2="630" stroke="#4D4D4D" stroke-width="2" marker-end="url(#ah-grey)"/>
  <text x="1035" y="622" text-anchor="middle" font-size="14" fill="#333333" font-style="italic">p</text>

  <use href="#check" x="1130" y="630" width="56" height="56"/>
  <text x="1130" y="687" text-anchor="middle" font-size="13" font-weight="700" fill="#009E73">calibrated</text>

  <use href="#reli-good" x="1210" y="600" width="72" height="44"/>
  <text x="1246" y="660" text-anchor="middle" font-size="10" fill="#666666" font-style="italic">reliability</text>

  <!-- ===================== UNIVERSALITY STRIP ===================== -->
  <rect x="40" y="760" width="1275" height="135" rx="6" fill="#F7F7F7" stroke="none"/>
  <text x="55" y="782" font-size="13" fill="#666666" font-style="italic">Stage 3 — universality: QCTS generalises across backbone families</text>

  <use href="#bb-conv" x="265" y="800" width="120" height="72"/>
  <use href="#check" x="325" y="878" width="18" height="18"/>
  <text x="395" y="845" font-size="13" font-weight="700" fill="#333333"
        letter-spacing="1.2" style="font-variant: small-caps;">CNN family</text>

  <use href="#bb-vit" x="605" y="800" width="120" height="72"/>
  <use href="#check" x="665" y="878" width="18" height="18"/>
  <text x="735" y="845" font-size="13" font-weight="700" fill="#333333"
        letter-spacing="1.2" style="font-variant: small-caps;">ViT family</text>

  <use href="#bb-hybrid" x="945" y="800" width="120" height="72"/>
  <use href="#check" x="1005" y="878" width="18" height="18"/>
  <text x="1075" y="845" font-size="13" font-weight="700" fill="#333333"
        letter-spacing="1.2" style="font-variant: small-caps;">Hybrid family</text>

  <!-- ===================== INFERENCE COLUMN ===================== -->
  <rect x="1345" y="85" width="540" height="810" rx="6" fill="#F7F7F7" stroke="none"/>

  <use href="#lesion" x="1615" y="160" width="80" height="80"/>
  <text x="1615" y="240" text-anchor="middle" font-size="13" fill="#333333" font-style="italic">x  single dermoscopy</text>
  <line x1="1615" y1="262" x2="1615" y2="290" stroke="#4D4D4D" stroke-width="2" marker-end="url(#ah-grey)"/>

  <rect x="1490" y="295" width="120" height="48" rx="4" fill="#FFFFFF" stroke="#0072B2" stroke-width="1.4"/>
  <g stroke="#333333" stroke-width="0.8" fill="none">
    <line x1="1502" y1="305" x2="1598" y2="305"/>
    <line x1="1502" y1="313" x2="1590" y2="313"/>
    <line x1="1502" y1="321" x2="1598" y2="321"/>
    <line x1="1502" y1="329" x2="1582" y2="329"/>
    <line x1="1502" y1="337" x2="1598" y2="337"/>
  </g>
  <text x="1550" y="362" text-anchor="middle" font-size="11" fill="#666666" font-style="italic">5-head IQA</text>
  <line x1="1610" y1="319" x2="1660" y2="319" stroke="#4D4D4D" stroke-width="2" marker-end="url(#ah-grey)"/>
  <rect x="1665" y="298" width="78" height="42" rx="21" fill="#FFFFFF" stroke="#0072B2" stroke-width="2.4"/>
  <text x="1704" y="330" text-anchor="middle" font-size="22" fill="#0072B2" font-weight="700">q</text>
  <line x1="1697" y1="308" x2="1711" y2="308" stroke="#0072B2" stroke-width="2.2" stroke-linecap="round"/>

  <line x1="1615" y1="345" x2="1615" y2="385" stroke="#4D4D4D" stroke-width="2" marker-end="url(#ah-grey)"/>

  <rect x="1535" y="390" width="160" height="90" rx="5" fill="#FFFFFF" stroke="#4D4D4D" stroke-width="1.4"/>
  <text x="1615" y="410" text-anchor="middle" font-size="13" font-weight="700" fill="#333333">Backbone f&#x03B8;</text>
  <use href="#bb-conv" x="1565" y="420" width="100" height="56"/>
  <use href="#snowflake" x="1685" y="404" width="14" height="14"/>
  <line x1="1615" y1="485" x2="1615" y2="525" stroke="#4D4D4D" stroke-width="2" marker-end="url(#ah-grey)"/>
  <text x="1635" y="510" font-size="14" fill="#333333" font-style="italic">z</text>

  <rect x="1535" y="530" width="160" height="80" rx="5" fill="#FFFFFF" stroke="#009E73" stroke-width="2"/>
  <text x="1615" y="555" text-anchor="middle" font-size="15" font-weight="700" fill="#333333">QCTS( q-bar )</text>
  <use href="#thermo" x="1555" y="572" width="18" height="36"/>
  <use href="#gear" x="1660" y="582" width="18" height="18"/>
  <line x1="1615" y1="615" x2="1615" y2="655" stroke="#4D4D4D" stroke-width="2" marker-end="url(#ah-grey)"/>

  <rect x="1565" y="660" width="100" height="38" rx="19" fill="#FFFFFF" stroke="#CCCCCC" stroke-width="1.2"/>
  <text x="1615" y="685" text-anchor="middle" font-size="14" fill="#333333">softmax</text>
  <line x1="1615" y1="700" x2="1615" y2="740" stroke="#4D4D4D" stroke-width="2" marker-end="url(#ah-grey)"/>

  <rect x="1530" y="745" width="170" height="80" rx="4" fill="#FFFFFF" stroke="#CCCCCC" stroke-width="1"/>
  <rect x="1550" y="770" width="60" height="14" fill="#666666" opacity="0.5"/>
  <rect x="1550" y="788" width="130" height="14" fill="#009E73"/>
  <text x="1545" y="781" font-size="11" text-anchor="end" fill="#666666">benign</text>
  <text x="1545" y="799" font-size="11" text-anchor="end" fill="#333333">malignant</text>
  <text x="1615" y="845" text-anchor="middle" font-size="13" font-weight="700" fill="#009E73">calibrated p</text>

  <!-- ===================== LEGEND STRIP ===================== -->
  <line x1="40" y1="930" x2="1880" y2="930" stroke="#CCCCCC" stroke-width="0.8" stroke-dasharray="3,3"/>

  <g font-size="14" fill="#333333">
    <use href="#snowflake" x="115" y="975" width="22" height="22"/>
    <text x="145" y="980">frozen weights</text>

    <use href="#flame" x="450" y="965" width="18" height="22"/>
    <text x="475" y="980">fitted parameters (T_0, &#x03B1;)</text>

    <use href="#cam" x="850" y="975" width="28" height="22"/>
    <text x="885" y="980">input image</text>

    <use href="#warn" x="1170" y="978" width="28" height="26"/>
    <text x="1200" y="980">TS reversal</text>

    <use href="#check" x="1450" y="975" width="22" height="22"/>
    <text x="1480" y="980">calibrated output</text>

    <line x1="1670" y1="970" x2="1730" y2="970" stroke="#E69F00" stroke-width="2.2" stroke-dasharray="6,3"/>
    <text x="1740" y="974" font-size="12">Path A (failure)</text>
    <line x1="1670" y1="990" x2="1730" y2="990" stroke="#009E73" stroke-width="2.4"/>
    <text x="1740" y="994" font-size="12">Path B (ours, fix)</text>
  </g>
</svg>
